<svg xmlns="http://www.w3.org/2000/svg" width="163.939" height="157.537" viewBox="0 0 163.939 157.537">
  <g id="Groupe_26" data-name="Groupe 26" transform="translate(-8425.938 -1921.145)">
    <path id="Tracé_247" data-name="Tracé 247" d="M8523.352,1955.025s16.225-18.587,34.944,0,11.935,63.936-4.006,79.705-39.489,22.1-68.328,15.211c-3.71,3.8-6.926,12.944-7.618,17.968-17.134-72.9,27.864-92.2,45.008-95.48C8528.713,1967.953,8523.352,1955.025,8523.352,1955.025Z" fill="none" stroke="#0e092b" stroke-linecap="round" stroke-linejoin="round" stroke-width="4"/>
    <path id="Tracé_249" data-name="Tracé 249" d="M8523.926,1971.726c3.165-2.354,1.66-11.322-.6-16.241-2.171-.754-14.938.033-17.9,10.694C8516,1965.413,8519.914,1968.6,8523.926,1971.726Z" fill="none" stroke="#0e092b" stroke-linecap="round" stroke-linejoin="round" stroke-width="4"/>
    <path id="Tracé_250" data-name="Tracé 250" d="M8542.148,1946.764c26.875-1.153,34.174-18.226,34.193-21.449,25.5,20.631,3.481,33.518-16.437,31.18C8555.493,1949.672,8545.835,1947,8542.148,1946.764Z" fill="none" stroke="#0e092b" stroke-linecap="round" stroke-linejoin="round" stroke-width="4"/>
    <path id="Tracé_251" data-name="Tracé 251" d="M8519.745,2014.638c-20.725,8.075-35,34.312-38.34,43.509" fill="none" stroke="#0e092b" stroke-linecap="round" stroke-width="4"/>
    <path id="Tracé_252" data-name="Tracé 252" d="M8474.52,2034.552c-.079.21-43.437,13.916-43.437,13.916s19.348,10.3,25.33,10.347c9.6-6.549,18.677-12,18.677-12A53.207,53.207,0,0,1,8474.52,2034.552Z" fill="none" stroke="#0e092b" stroke-linecap="round" stroke-linejoin="round" stroke-width="4"/>
    <path id="Tracé_253" data-name="Tracé 253" d="M8500.575,2052.57l9.431,18.125" fill="none" stroke="#0e092b" stroke-linecap="round" stroke-width="4"/>
    <path id="Tracé_254" data-name="Tracé 254" d="M8536.112,2047.531l-2.558,9.4L8556,2072.072" fill="none" stroke="#0e092b" stroke-linecap="round" stroke-linejoin="round" stroke-width="4"/>
    <path id="Tracé_255" data-name="Tracé 255" d="M8519.745,2074.054s-5.321-6.758-19.033,0" fill="none" stroke="#0e092b" stroke-linecap="round" stroke-width="4"/>
    <path id="Tracé_256" data-name="Tracé 256" d="M8549.493,2077.3s9.565-10,14.513-5.751" fill="none" stroke="#0e092b" stroke-linecap="round" stroke-width="4"/>
  </g>
</svg>
