<svg xmlns="http://www.w3.org/2000/svg" width="156" height="132.13" viewBox="0 0 156 132.13">
  <g id="Groupe_25" data-name="Groupe 25" transform="translate(-8433.5 -1361.654)">
    <path id="Tracé_239" data-name="Tracé 239" d="M8468.761,1368.2l-3.332,49.32-8.947,45.928,31.937,28.341h46.748l32.062-28.341-8.618-45.928-3.663-49.32-15.138,25.8s-28.37-11.049-55.607,0C8483.985,1393.735,8468.761,1368.2,8468.761,1368.2Z" transform="translate(0.019)" fill="none" stroke="#0e092b" stroke-linecap="round" stroke-linejoin="round" stroke-width="4"/>
    <line id="Ligne_19" data-name="Ligne 19" x1="43" y2="21" transform="translate(8533.5 1421.5)" fill="none" stroke="#0e092b" stroke-linecap="round" stroke-width="4"/>
    <line id="Ligne_20" data-name="Ligne 20" x1="54" transform="translate(8533.5 1451.5)" fill="none" stroke="#0e092b" stroke-linecap="round" stroke-width="4"/>
    <line id="Ligne_21" data-name="Ligne 21" x1="43" y1="20" transform="translate(8533.5 1460.5)" fill="none" stroke="#0e092b" stroke-linecap="round" stroke-width="4"/>
    <path id="Tracé_240" data-name="Tracé 240" d="M8501.968,1444.763h19.362l-9.605,9.605Z" fill="none" stroke="#0e092b" stroke-linecap="round" stroke-linejoin="round" stroke-width="4"/>
    <path id="Tracé_241" data-name="Tracé 241" d="M8511.648,1454.368v7.175c0,1.352-1.818,6.907-8.365,5.714" transform="translate(-0.783)" fill="none" stroke="#0e092b" stroke-linecap="round" stroke-width="4"/>
    <path id="Tracé_242" data-name="Tracé 242" d="M8503.283,1454.368v7.175c0,1.352,1.818,6.907,8.365,5.714" transform="translate(8.217)" fill="none" stroke="#0e092b" stroke-linecap="round" stroke-width="4"/>
    <line id="Ligne_22" data-name="Ligne 22" x2="43" y2="21" transform="translate(8446.5 1421.5)" fill="none" stroke="#0e092b" stroke-linecap="round" stroke-width="4"/>
    <line id="Ligne_23" data-name="Ligne 23" x2="54" transform="translate(8435.5 1451.5)" fill="none" stroke="#0e092b" stroke-linecap="round" stroke-width="4"/>
    <line id="Ligne_24" data-name="Ligne 24" y1="20" x2="43" transform="translate(8446.5 1460.5)" fill="none" stroke="#0e092b" stroke-linecap="round" stroke-width="4"/>
  </g>
</svg>
