<svg id="Groupe_19" data-name="Groupe 19" xmlns="http://www.w3.org/2000/svg" xmlns:xlink="http://www.w3.org/1999/xlink" width="174.638" height="185.152" viewBox="0 0 174.638 185.152">
  <defs>
    <linearGradient id="linear-gradient" x1="13.21" y1="17.968" x2="13.21" y2="16.969" gradientUnits="objectBoundingBox">
      <stop offset="0" stop-color="#fff"/>
      <stop offset="1"/>
    </linearGradient>
  </defs>
  <path id="Tracé_139" data-name="Tracé 139" d="M761.3,256.023a27.086,27.086,0,0,0,10.188-1.4c6.568-1.913,13.382-4.952,16.787-10.885a31.4,31.4,0,0,0,2.644-6.993c1.4-4.844,2.815-9.745,3.041-14.783a32.04,32.04,0,0,0-3.487-15.993,3.447,3.447,0,0,0-1.77-1.651,2.093,2.093,0,0,0-2.663.943c-3.551,4.552-3.184,10.888-3.48,16.654a60.079,60.079,0,0,1-3.361,16.94c-.82,2.314-1.9,4.723-3.982,6.026a12.127,12.127,0,0,1-4.27,1.368c-2.211.415-4.624.8-6.605-.261-2.029-1.089-3.371-3.911-5.713-4.38-2.317-.464-5.479,1.963-6.513,4.008C749.312,251.151,756.7,255.562,761.3,256.023Z" transform="translate(-619.35 -164.215)" fill="#ffd180"/>
  <g id="Groupe_15" data-name="Groupe 15" transform="translate(132.146 39.919)" opacity="0.1">
    <path id="Tracé_140" data-name="Tracé 140" d="M822.351,244.878a12.128,12.128,0,0,1-4.27,1.368,14.926,14.926,0,0,1-4.634.343c1.889.787,4.1.443,6.144.059a12.128,12.128,0,0,0,4.27-1.368c2.081-1.3,3.162-3.711,3.982-6.026a60.073,60.073,0,0,0,3.361-16.94c.3-5.766-.071-12.1,3.48-16.654a2.45,2.45,0,0,1,1.62-1.105,3.083,3.083,0,0,0-.467-.24,2.092,2.092,0,0,0-2.663.943c-3.551,4.552-3.184,10.888-3.48,16.654a60.072,60.072,0,0,1-3.361,16.94C825.513,241.166,824.432,243.575,822.351,244.878Z" transform="translate(-798.632 -204.134)"/>
    <path id="Tracé_141" data-name="Tracé 141" d="M753.623,365.054c.956-1.89,3.728-4.1,5.972-4.06a3.709,3.709,0,0,0-.969-.35c-2.317-.464-5.479,1.963-6.513,4.008-2.613,5.166,3.641,9.349,8.223,10.263C756.031,373.5,751.289,369.669,753.623,365.054Z" transform="translate(-751.496 -323.173)"/>
  </g>
  <rect id="Rectangle_78" data-name="Rectangle 78" width="44.531" height="12.891" transform="translate(113.027 41.194) rotate(26.478)" opacity="0.1"/>
  <rect id="Rectangle_79" data-name="Rectangle 79" width="44.531" height="11.719" transform="translate(113.027 41.194) rotate(26.478)" fill="#6c63ff"/>
  <circle id="Ellipse_15" data-name="Ellipse 15" cx="7.031" cy="7.031" r="7.031" transform="translate(131.51 40.763)" fill="#6c63ff"/>
  <path id="Tracé_142" data-name="Tracé 142" d="M581.137,48.333s12.174,3.3,16.606,8.272c0,0,7.181-6.1,10.5-4.441s-1.638,14.384-1.638,14.384l-4.395,19.919s2.286,48.119-28.675,57.569-53.145-29.235-45.976-43.627,28.7-40.975,28.7-40.975,18.774-21.047,22.092-22.159S581.137,48.333,581.137,48.333Z" transform="translate(-447.937 -37.203)" fill="#ffd180"/>
  <g id="Groupe_16" data-name="Groupe 16" transform="translate(83.025 0)" opacity="0.1">
    <path id="Tracé_143" data-name="Tracé 143" d="M833.336,267.762a97.826,97.826,0,0,0,2.56-24.548l-.694,3.146A97.786,97.786,0,0,1,833.336,267.762Z" transform="translate(-764.644 -193.949)" fill="#fff"/>
    <path id="Tracé_144" data-name="Tracé 144" d="M546.152,98.414c7.169-14.392,24.538-35.836,24.538-35.836s18.774-21.047,22.091-22.159,2.782,11.058,2.782,11.058,12.174,3.3,16.607,8.272c0,0,7.181-6.1,10.5-4.441,1.289.642,1.329,2.954.9,5.541.961-3.62,1.6-7.788-.2-8.687-3.321-1.654-10.5,4.441-10.5,4.441-4.433-4.971-16.607-8.272-16.607-8.272s.535-12.17-2.782-11.058-22.091,22.159-22.091,22.159-17.369,21.443-24.538,35.836C546.2,96.569,545.947,98.827,546.152,98.414Z" transform="translate(-546.082 -37.203)" fill="#fff"/>
  </g>
  <circle id="Ellipse_16" data-name="Ellipse 16" cx="2.474" cy="2.474" r="2.474" transform="translate(142.665 38.784)" fill="#58555d"/>
  <circle id="Ellipse_17" data-name="Ellipse 17" cx="2.474" cy="2.474" r="2.474" transform="translate(117.201 26.101)" fill="#58555d"/>
  <ellipse id="Ellipse_18" data-name="Ellipse 18" cx="2.474" cy="3.711" rx="2.474" ry="3.711" transform="translate(127.433 37.965) rotate(-63.522)" fill="#58555d"/>
  <rect id="Rectangle_80" data-name="Rectangle 80" width="1.237" height="11.403" transform="translate(151.633 45.165) rotate(-76.039)" fill="#ffd180"/>
  <rect id="Rectangle_81" data-name="Rectangle 81" width="1.237" height="12.613" transform="translate(149.414 49.587) rotate(-74.788)" fill="#ffd180"/>
  <rect id="Rectangle_82" data-name="Rectangle 82" width="1.236" height="13.321" transform="matrix(0.746, -0.665, 0.665, 0.746, 103.151, 14.075)" fill="#ffd180"/>
  <rect id="Rectangle_83" data-name="Rectangle 83" width="1.237" height="16.268" transform="translate(97.177 18.051) rotate(-54.776)" fill="#ffd180"/>
  <path id="Tracé_145" data-name="Tracé 145" d="M611.4,301.8s-.641,20.575-11.458,16.967,1.488-16.757,1.488-16.757,1.274-5.091-1.059-6.576" transform="translate(-500.65 -233.68)" opacity="0.1"/>
  <path id="Tracé_146" data-name="Tracé 146" d="M667.265,339.728s-17.118,11.433-8.332,18.7,13.43-10.131,13.43-10.131,3.645-3.775,6.14-2.581" transform="translate(-547.014 -267.384)" opacity="0.1"/>
  <path id="Tracé_147" data-name="Tracé 147" d="M608.583,297.955s-.64,20.575-11.458,16.967,1.488-16.757,1.488-16.757,1.274-5.091-1.059-6.576" transform="translate(-498.508 -230.757)" fill="#ffd180"/>
  <path id="Tracé_148" data-name="Tracé 148" d="M671.656,338.248s-17.118,11.433-8.332,18.7,13.43-10.131,13.43-10.131,3.645-3.775,6.14-2.581" transform="translate(-550.354 -266.258)" fill="#ffd180"/>
  <rect id="Rectangle_84" data-name="Rectangle 84" width="3.649" height="0.195" transform="translate(95.472 82.349) rotate(-63.522)" fill="#58555d" opacity="0.5"/>
  <rect id="Rectangle_85" data-name="Rectangle 85" width="3.649" height="0.195" transform="translate(98.269 83.742) rotate(-63.522)" fill="#58555d" opacity="0.5"/>
  <rect id="Rectangle_86" data-name="Rectangle 86" width="5.108" height="0.195" transform="translate(96.62 83.249) rotate(-63.522)" fill="#58555d" opacity="0.5"/>
  <rect id="Rectangle_87" data-name="Rectangle 87" width="3.649" height="0.195" transform="translate(114.002 90.706) rotate(-63.522)" fill="#58555d" opacity="0.5"/>
  <rect id="Rectangle_88" data-name="Rectangle 88" width="3.649" height="0.195" transform="translate(116.8 92.099) rotate(-63.522)" fill="#58555d" opacity="0.5"/>
  <rect id="Rectangle_89" data-name="Rectangle 89" width="5.108" height="0.195" transform="translate(115.15 91.606) rotate(-63.522)" fill="#58555d" opacity="0.5"/>
  <path id="Tracé_149" data-name="Tracé 149" d="M642.131,183.374a56.581,56.581,0,0,1-8.281-5.047,53.37,53.37,0,0,1-12.814-13.388l1.276-1.6A58.692,58.692,0,0,0,635.2,176.652c7.287,5.337,21.2,11.754,38.965,11.009l.09,2.15A68.262,68.262,0,0,1,642.131,183.374Z" transform="translate(-520.087 -133.179)" opacity="0.1"/>
  <path id="Tracé_150" data-name="Tracé 150" d="M708.327,246.469l-.038-.113a1.3,1.3,0,0,0,.924-1.845l.108-.05a1.414,1.414,0,0,1-.995,2.008Z" transform="translate(-586.475 -194.898)" fill="#4d8af0"/>
  <path id="Tracé_151" data-name="Tracé 151" d="M708.327,246.469l-.038-.113a1.3,1.3,0,0,0,.924-1.845l.108-.05a1.414,1.414,0,0,1-.995,2.008Z" transform="translate(-586.475 -194.898)" opacity="0.1"/>
  <path id="Tracé_152" data-name="Tracé 152" d="M673.274,185.871c-17.764.745-31.677-5.672-38.964-11.009a58.693,58.693,0,0,1-12.893-13.309l-1.837,1.121a59.646,59.646,0,0,0,13.376,13.863,56.583,56.583,0,0,0,8.281,5.047,68.262,68.262,0,0,0,32.128,6.437Zm-31.609-4.252a.239.239,0,1,1,.321-.107A.239.239,0,0,1,641.665,181.618Z" transform="translate(-518.979 -131.817)" fill="#f55f44"/>
  <path id="Tracé_153" data-name="Tracé 153" d="M695.942,249.316h0a2.391,2.391,0,0,0,1.074,3.207h0a2.391,2.391,0,0,0,3.207-1.074h0a2.391,2.391,0,0,0-1.074-3.207h0A2.391,2.391,0,0,0,695.942,249.316Zm2.674,0a.4.4,0,1,1,.534-.179A.4.4,0,0,1,698.616,249.312Z" transform="translate(-576.89 -197.584)" opacity="0.1" fill="url(#linear-gradient)"/>
  <path id="Tracé_154" data-name="Tracé 154" d="M696.917,250.184h0a2.152,2.152,0,0,0,.967,2.886h0a2.152,2.152,0,0,0,2.886-.967h0a2.152,2.152,0,0,0-.967-2.886h0A2.152,2.152,0,0,0,696.917,250.184Zm2.406,0a.359.359,0,1,1,.481-.161A.359.359,0,0,1,699.324,250.18Z" transform="translate(-577.651 -198.345)" fill="#4d8af0"/>
  <path id="Tracé_155" data-name="Tracé 155" d="M707.682,246.325a1.414,1.414,0,0,1,1-2l.025.117a1.3,1.3,0,0,0-.916,1.849Z" transform="translate(-585.906 -194.792)" fill="#4d8af0"/>
  <path id="Tracé_156" data-name="Tracé 156" d="M513.488,207.363h0" transform="translate(-390.696 -157.775)" fill="#4d8af0"/>
  <path id="Tracé_157" data-name="Tracé 157" d="M681.092,190.51c-38.1,2.66-47.089-21.852-47.089-21.852Z" transform="translate(-529.953 -137.223)" fill="#ffd180"/>
  <path id="Tracé_158" data-name="Tracé 158" d="M399.263,615.539H394.27v42.212s32.227,10.44,63.545,0V615.539Z" transform="translate(-347.549 -477.239)" fill="#3f3d56"/>
  <ellipse id="Ellipse_19" data-name="Ellipse 19" cx="31.319" cy="4.766" rx="31.319" ry="4.766" transform="translate(46.721 133.761)" fill="#3f3d56"/>
  <ellipse id="Ellipse_20" data-name="Ellipse 20" cx="31.319" cy="4.766" rx="31.319" ry="4.766" transform="translate(46.721 133.761)" opacity="0.1"/>
  <path id="Tracé_159" data-name="Tracé 159" d="M538.437,218.6c-7.9,29.206-34.962,47.294-34.962,47.294s-14.252-29.264-6.351-58.47,34.962-47.294,34.962-47.294S546.338,189.392,538.437,218.6Z" transform="translate(-423.991 -130.733)" fill="#3f3d56"/>
  <path id="Tracé_160" data-name="Tracé 160" d="M369.326,218.6c7.9,29.206,34.962,47.294,34.962,47.294s14.252-29.264,6.351-58.47-34.962-47.294-34.962-47.294S361.426,189.392,369.326,218.6Z" transform="translate(-326.755 -130.733)" fill="#768bd0"/>
  <path id="Tracé_161" data-name="Tracé 161" d="M253.074,305.593c21.68,21.1,24.328,53.547,24.328,53.547s-32.5-1.775-54.181-22.879-24.328-53.546-24.328-53.546S231.394,284.488,253.074,305.593Z" transform="translate(-198.893 -224.004)" fill="#3f3d56"/>
  <path id="Tracé_162" data-name="Tracé 162" d="M551.526,305.593c-21.68,21.1-24.328,53.547-24.328,53.547s32.5-1.775,54.181-22.879,24.328-53.546,24.328-53.546S573.206,284.488,551.526,305.593Z" transform="translate(-448.689 -224.004)" fill="#3f3d56"/>
</svg>
