<svg xmlns="http://www.w3.org/2000/svg" width="117.162" height="113.823" viewBox="0 0 117.162 113.823">
  <g id="Groupe_24" data-name="Groupe 24" transform="translate(-8118.166 -1249.897)">
    <path id="Tracé_232" data-name="Tracé 232" d="M8042.462,1422.578l-20.694,12.2,15.75,47.938,8.615-15.451,6.481,15.451,7.257-15.451,7.183,15.451,7.04-15.451,8.532,15.451,16.25-47.938-20.338-12.2Z" transform="translate(116 -121)" fill="none" stroke="#0e092b" stroke-linecap="round" stroke-linejoin="round" stroke-width="4"/>
    <path id="Tracé_233" data-name="Tracé 233" d="M8067.864,1454.162l-8.685-8.857-8.535,8.857" transform="translate(116 -121)" fill="none" stroke="#0e092b" stroke-linecap="round" stroke-linejoin="round" stroke-width="4"/>
    <path id="Tracé_234" data-name="Tracé 234" d="M8059.254,1445.3v-6.7l16.65-15.774" transform="translate(116 -121)" fill="none" stroke="#0e092b" stroke-linecap="round" stroke-linejoin="round" stroke-width="4"/>
    <path id="Tracé_235" data-name="Tracé 235" d="M8059.254,1437.906l-16.083-14.485" transform="translate(116 -121)" fill="none" stroke="#0e092b" stroke-linecap="round" stroke-width="4"/>
    <path id="Tracé_236" data-name="Tracé 236" d="M8028.674,1430.664l-9.994-34.52,18.917-19.518s28.859-2.62,45.719,0c.281.439,18.907,19.518,18.907,19.518l-10.666,34.52-13.065-7.955h-35.667Z" transform="translate(116 -121)" fill="none" stroke="#0e092b" stroke-linejoin="round" stroke-width="4"/>
    <path id="Tracé_237" data-name="Tracé 237" d="M8018.68,1396.249l22.649-23.352-32.66,3.326-4.5,34.151Z" transform="translate(116 -121)" fill="none" stroke="#0e092b" stroke-linecap="round" stroke-linejoin="round" stroke-width="4"/>
    <path id="Tracé_238" data-name="Tracé 238" d="M8026.814,1396.249l-22.649-23.352,32.66,3.326,4.5,34.151Z" transform="translate(192 -121)" fill="none" stroke="#0e092b" stroke-linecap="round" stroke-linejoin="round" stroke-width="4"/>
  </g>
</svg>
