<svg xmlns="http://www.w3.org/2000/svg" width="167.751" height="94.947" viewBox="0 0 167.751 94.947">
  <g id="Groupe_29" data-name="Groupe 29" transform="translate(-8221.098 -2417.861)">
    <path id="Tracé_292" data-name="Tracé 292" d="M7787.1,2798.555c7.729-8.785,19.8-32.439,71.612-28.831s88.331,28.831,88.331,28.831-60.122,31.461-92.508,29.787S7802.676,2821.13,7787.1,2798.555Z" transform="translate(436.001 -329.405)" fill="none" stroke="#0e092b" stroke-linecap="round" stroke-linejoin="round" stroke-width="4"/>
    <path id="Tracé_293" data-name="Tracé 293" d="M7919.45,2741.915s23.321-28.456,69.81-17.546c-4.632,7.1-14.013,13.9-14.013,13.9a60.72,60.72,0,0,1,32.426,2.431,44.482,44.482,0,0,1-13.583,11.115c-1.225.453,10.345-2.3,17.7,1.517-2.93,4.121-9.125,6.2-9.125,6.2" transform="translate(359.508 -301.967)" fill="none" stroke="#0e092b" stroke-linecap="round" stroke-linejoin="round" stroke-width="4"/>
    <path id="Tracé_294" data-name="Tracé 294" d="M8131.049,2800.1a49.569,49.569,0,0,0,17.853-13.736c2.179,15.65-.9,16.541-3.386,21.71" transform="translate(237.216 -339.235)" fill="none" stroke="#0e092b" stroke-linecap="round" stroke-linejoin="round" stroke-width="4"/>
    <path id="Tracé_295" data-name="Tracé 295" d="M8129.352,2793.995a52.134,52.134,0,0,1,18.568,14.078c2.18-15.65-.9-16.541-3.386-21.711" transform="translate(238.198 -317.288)" fill="none" stroke="#0e092b" stroke-linecap="round" stroke-linejoin="round" stroke-width="4"/>
    <path id="Tracé_296" data-name="Tracé 296" d="M8009.273,2891.061s10.03,5.7,15.045,7.794c-30.975,4.224-40.127-1.36-40.127-1.36" transform="translate(322.091 -399.745)" fill="none" stroke="#0e092b" stroke-linecap="round" stroke-linejoin="round" stroke-width="4"/>
    <path id="Tracé_297" data-name="Tracé 297" d="M7944.332,2907.428s6.639,7,12.486,12.584c-29.563-3.862-36.033-12.584-36.033-12.584" transform="translate(358.736 -409.204)" fill="none" stroke="#0e092b" stroke-linecap="round" stroke-linejoin="round" stroke-width="4"/>
    <path id="Tracé_298" data-name="Tracé 298" d="M7915.62,2780.25c11.445,16.748,10.059,26.133,0,41.1" transform="translate(360.502 -331.281)" fill="none" stroke="#0e092b" stroke-linecap="round" stroke-width="4"/>
    <path id="Soustraction_11" data-name="Soustraction 11" d="M3.608,13.266h0A7.371,7.371,0,0,0,6.8,10.859,6.06,6.06,0,0,0,8.031,7.218a5.926,5.926,0,0,0-.592-2.585A6.641,6.641,0,0,0,5.823,2.522,7.642,7.642,0,0,0,3.427,1.1,8.375,8.375,0,0,0,.492.577C.328.577.163.582,0,.591A8.344,8.344,0,0,1,3.114,0,8.376,8.376,0,0,1,6.049.522a7.642,7.642,0,0,1,2.4,1.423,6.641,6.641,0,0,1,1.616,2.111,5.926,5.926,0,0,1,.592,2.585,6.212,6.212,0,0,1-2.048,4.55A7.961,7.961,0,0,1,3.608,13.266Z" transform="translate(8298.496 2451.396) rotate(9)" fill="#0e092b"/>
    <path id="Soustraction_12" data-name="Soustraction 12" d="M3.412,14.908h0a7.241,7.241,0,0,0,3.016-2.7A7.682,7.682,0,0,0,7.6,8.111a7.714,7.714,0,0,0-.56-2.9A7.466,7.466,0,0,0,5.507,2.834a7.1,7.1,0,0,0-2.266-1.6A6.813,6.813,0,0,0,.465.649C.311.649.154.654,0,.664A6.86,6.86,0,0,1,5.72.586a7.1,7.1,0,0,1,2.266,1.6A7.466,7.466,0,0,1,9.515,4.557a7.714,7.714,0,0,1,.56,2.9,7.623,7.623,0,0,1-1.937,5.113A6.975,6.975,0,0,1,3.412,14.908Z" transform="translate(8313.222 2471.445) rotate(9)" fill="#0e092b"/>
    <path id="Soustraction_13" data-name="Soustraction 13" d="M3,14.532H3A6.642,6.642,0,0,0,5.65,11.9,8.1,8.1,0,0,0,6.676,7.907a8.243,8.243,0,0,0-.492-2.831A7.41,7.41,0,0,0,4.84,2.763,6.285,6.285,0,0,0,2.848,1.2,5.492,5.492,0,0,0,.409.632C.273.632.135.638,0,.648A5.494,5.494,0,0,1,5.028.572,6.285,6.285,0,0,1,7.02,2.131,7.41,7.41,0,0,1,8.363,4.443a8.243,8.243,0,0,1,.492,2.831,7.912,7.912,0,0,1-1.7,4.984A5.931,5.931,0,0,1,3,14.532Z" transform="translate(8334.507 2457.693) rotate(9)" fill="#0e092b"/>
    <path id="Soustraction_14" data-name="Soustraction 14" d="M1.464,5.935h0A3.04,3.04,0,0,0,2.758,4.858a2.9,2.9,0,0,0,.5-1.629,2.879,2.879,0,0,0-.24-1.156,2.958,2.958,0,0,0-.656-.944A3.055,3.055,0,0,0,1.39.492,3.118,3.118,0,0,0,.2.258c-.066,0-.134,0-.2.006A3.111,3.111,0,0,1,1.264,0,3.118,3.118,0,0,1,2.454.233,3.055,3.055,0,0,1,3.427.87a2.958,2.958,0,0,1,.656.944,2.879,2.879,0,0,1,.24,1.156,2.913,2.913,0,0,1-.831,2.035A3.084,3.084,0,0,1,1.464,5.935Z" transform="translate(8357.836 2467.59) rotate(9)" fill="#0e092b"/>
  </g>
</svg>
