<svg xmlns="http://www.w3.org/2000/svg" xmlns:xlink="http://www.w3.org/1999/xlink" width="793.839" height="547.922" viewBox="0 0 793.839 547.922">
  <defs>
    <filter id="Tracé_300" x="35.352" y="160.022" width="423.779" height="331.605" filterUnits="userSpaceOnUse">
      <feOffset dy="3" input="SourceAlpha"/>
      <feGaussianBlur stdDeviation="3" result="blur"/>
      <feFlood flood-opacity="0.161"/>
      <feComposite operator="in" in2="blur"/>
      <feComposite in="SourceGraphic"/>
    </filter>
    <filter id="Tracé_302" x="188.549" y="12.247" width="591.204" height="535.675" filterUnits="userSpaceOnUse">
      <feOffset dy="3" input="SourceAlpha"/>
      <feGaussianBlur stdDeviation="3" result="blur-2"/>
      <feFlood flood-opacity="0.161"/>
      <feComposite operator="in" in2="blur-2"/>
      <feComposite in="SourceGraphic"/>
    </filter>
  </defs>
  <g id="Groupe_33" data-name="Groupe 33" transform="translate(-3474.002 649.314)">
    <g id="Tracé_299" data-name="Tracé 299" transform="matrix(0.995, -0.105, 0.105, 0.995, 3499.298, -481.57)" fill="none">
      <path d="M246.566-14.373c98.17,7.879,180.14,89.751,180.14,167.057S265.292,154.1,184.744,291.4-23.848,189.55-23.848,112.244,148.4-22.252,246.566-14.373Z" stroke="none"/>
      <path d="M 227.5532989501953 -14.09857177734375 C 202.953857421875 -14.09857177734375 174.8849792480469 -10.75296020507812 146.3811950683594 -4.42340087890625 C 117.5095825195312 1.987823486328125 89.31158447265625 11.22457885742188 64.83563232421875 22.28836059570312 C 52.0177001953125 28.08242797851562 40.26898193359375 34.35321044921875 29.91567993164062 40.92642211914062 C 19.07809448242188 47.80718994140625 9.717742919921875 55.05502319335938 2.094696044921875 62.46865844726562 C -5.915069580078125 70.25830078125 -12.08724975585938 78.31271362304688 -16.25018310546875 86.40805053710938 C -18.40786743164062 90.60382080078125 -20.05746459960938 94.87847900390625 -21.1531982421875 99.11325073242188 C -22.27786254882812 103.4599304199219 -22.84814453125 107.8777465820312 -22.84814453125 112.2440795898438 C -22.84814453125 119.6397705078125 -21.66952514648438 128.6165466308594 -19.34515380859375 138.9249877929688 C -17.05853271484375 149.0657043457031 -13.73257446289062 160.1926422119141 -9.459625244140625 171.9968719482422 C -5.148681640625 183.9062652587891 -0.006683349609375 196.1356964111328 5.823516845703125 208.3454284667969 C 11.85479736328125 220.9763641357422 18.47674560546875 233.275146484375 25.50540161132812 244.900146484375 C 32.91348266601562 257.1525268554688 40.67718505859375 268.4909057617188 48.58087158203125 278.6002502441406 C 56.99862670898438 289.3671875 65.560791015625 298.7158203125 74.02963256835938 306.386474609375 C 83.0771484375 314.581298828125 92.08230590820312 320.9145812988281 100.7949829101562 325.2103576660156 C 105.3581848144531 327.4603271484375 109.9109802246094 329.1821899414062 114.3268737792969 330.3282470703125 C 118.8832397460938 331.5108032226562 123.4107360839844 332.1104125976562 127.7835388183594 332.1104125976562 C 132.7554016113281 332.1104125976562 137.6660766601562 331.3348083496094 142.379150390625 329.8051452636719 C 147.2738647460938 328.216552734375 152.0869750976562 325.7719116210938 156.6847991943359 322.5391845703125 C 161.4648132324219 319.1784057617188 166.1392517089844 314.8766479492188 170.5782470703125 309.75341796875 C 175.1859130859375 304.435546875 179.661865234375 298.0917053222656 183.8817443847656 290.898193359375 C 189.3778686523438 281.5292663574219 195.4803009033203 272.7857666015625 202.01953125 264.9107055664062 C 208.1906890869141 257.478759765625 214.9346313476562 250.5994262695312 222.0640258789062 244.4637603759766 C 228.7330780029297 238.7241973876953 235.9460296630859 233.4582061767578 243.5024108886719 228.8120422363281 C 250.4851989746094 224.5185852050781 257.993408203125 220.6125946044922 265.818603515625 217.2024841308594 C 279.2356872558594 211.3554229736328 294.0260925292969 206.7306976318359 311.034912109375 203.0640411376953 C 325.8887939453125 199.8619232177734 340.0044555664062 197.8699798583984 353.6554260253906 195.9435882568359 C 374.5605163574219 192.9935302734375 392.6148681640625 190.4457550048828 405.4867553710938 184.4285430908203 C 412.2025756835938 181.2890319824219 417.0668029785156 177.3990936279297 420.3572998046875 172.5364227294922 C 422.1061401367188 169.9520416259766 423.4398193359375 167.0222625732422 424.3211975097656 163.8285369873047 C 425.2395324707031 160.5009307861328 425.7052001953125 156.7515411376953 425.7052001953125 152.6845855712891 C 425.7052001953125 143.2670288085938 424.4658508300781 133.5753173828125 422.0216369628906 123.8786315917969 C 419.6353759765625 114.4119873046875 416.0841979980469 104.8704223632812 411.466796875 95.51913452148438 C 406.9148559570312 86.30035400390625 401.3047485351562 77.22042846679688 394.792236328125 68.531494140625 C 388.3005981445312 59.87026977539062 380.8879699707031 51.56488037109375 372.7603149414062 43.84591674804688 C 364.5650329589844 36.062744140625 355.6088562011719 28.84414672851562 346.1405944824219 22.39059448242188 C 336.4903564453125 15.81307983398438 326.2507019042969 9.992156982421875 315.7060852050781 5.089599609375 C 304.8608093261719 0.047210693359375 293.5980224609375 -4.066619873046875 282.2305297851562 -7.1376953125 C 270.4573669433594 -10.318359375 258.4310302734375 -12.41717529296875 246.4855346679688 -13.3759765625 C 240.5109100341797 -13.85546875 234.1411895751953 -14.09857177734375 227.5532989501953 -14.09857177734375 M 227.5533294677734 -15.09857177734375 C 234.1380767822266 -15.09857177734375 240.4898376464844 -14.86038208007812 246.5655212402344 -14.37274169921875 C 344.7351379394531 -6.493682861328125 426.7052001953125 75.37860107421875 426.7052001953125 152.6845855712891 C 426.7052001953125 229.9906463623047 265.2920837402344 154.0982513427734 184.7443084716797 291.4042053222656 C 167.380126953125 321.0040893554688 147.8037261962891 333.1104125976562 127.7835388183594 333.1104125976562 C 54.93551635742188 333.1104125976562 -23.84814453125 172.8847961425781 -23.84814453125 112.2440795898438 C -23.84814453125 39.72247314453125 127.7430725097656 -15.09857177734375 227.5533294677734 -15.09857177734375 Z" stroke="none" fill="#d3d3d3"/>
    </g>
    <g transform="matrix(1, 0, 0, 1, 3474, -649.31)" filter="url(#Tracé_300)">
      <path id="Tracé_300-2" data-name="Tracé 300" d="M219.693-14.445c88.414,7.1,162.238,80.832,162.238,150.456s-145.372,1.273-217.915,124.934S-23.848,169.213-23.848,99.589,131.279-21.541,219.693-14.445Z" transform="translate(68.2 181.12)" fill="#51628e"/>
    </g>
    <g id="Tracé_301" data-name="Tracé 301" transform="matrix(-0.94, -0.342, 0.342, -0.94, 4128.428, -97.124)" fill="none">
      <path d="M237.207,66.851C301.678-33.592,533.79,10.862,504.6,172.135s-14.788,91.1-251.933,200.037S-11.439,274.741.735,172.135,172.735,167.295,237.207,66.851Z" stroke="none"/>
      <path d="M 351.6502075195312 14.39810180664062 C 340.0025329589844 14.39810180664062 328.5437622070312 15.49539184570312 317.5921325683594 17.65939331054688 C 306.4034729003906 19.87017822265625 295.79833984375 23.18557739257812 286.0712890625 27.51336669921875 C 276.0049438476562 31.9921875 266.8790283203125 37.55831909179688 258.9469299316406 44.05718994140625 C 250.6600646972656 50.84664916992188 243.6288146972656 58.6973876953125 238.0484619140625 67.39132690429688 C 205.7762145996094 117.6700439453125 149.8680114746094 118.7272338867188 100.5411376953125 119.6599731445312 C 75.7266845703125 120.1291809082031 52.288330078125 120.5723876953125 34.52362060546875 127.2985229492188 C 25.12515258789062 130.8570556640625 17.97640991210938 135.8995666503906 12.6689453125 142.7144470214844 C 9.8135986328125 146.3807678222656 7.45806884765625 150.6436462402344 5.66778564453125 155.3847045898438 C 3.79241943359375 160.3512573242188 2.4669189453125 166.0265808105469 1.72821044921875 172.2529296875 C -0.02410888671875 187.0221252441406 -0.8399658203125 203.0956420898438 -0.63116455078125 218.7359161376953 C -0.39208984375 236.6549072265625 1.141357421875 254.0331115722656 3.9263916015625 270.3876953125 C 7.07135009765625 288.8559875488281 11.7947998046875 305.8280639648438 17.96566772460938 320.8323974609375 C 21.31500244140625 328.976318359375 25.13873291015625 336.6409301757812 29.33065795898438 343.6133117675781 C 33.74954223632812 350.9631042480469 38.68759155273438 357.7262573242188 44.00775146484375 363.71484375 C 49.2666015625 369.6345825195312 55.03128051757812 374.9461059570312 61.14166259765625 379.5019836425781 C 67.53240966796875 384.2669067382812 74.47201538085938 388.3322448730469 81.76766967773438 391.5851135253906 C 89.38607788085938 394.9818420410156 97.59906005859375 397.5845031738281 106.1786193847656 399.3208618164062 C 115.12353515625 401.131103515625 124.7107543945312 402.0489807128906 134.6739501953125 402.0489807128906 C 142.6852111816406 402.0489807128906 151.13720703125 401.4546508789062 159.7950744628906 400.2824401855469 C 168.7129516601562 399.0750427246094 178.0963439941406 397.2211303710938 187.6846008300781 394.7721252441406 C 197.5492858886719 392.2525024414062 207.9048156738281 389.0331115722656 218.4635314941406 385.2032470703125 C 229.3144836425781 381.2674560546875 240.6822204589844 376.5773315429688 252.2510070800781 371.26318359375 C 283.8745422363281 356.7369079589844 313.6815185546875 344.1538391113281 343.3752136230469 332.794921875 C 368.7104797363281 323.1033325195312 389.5374755859375 316.0082397460938 406.2722778320312 310.3072509765625 C 425.9542236328125 303.602294921875 440.1747436523438 298.7578430175781 451.3435974121094 293.3634033203125 C 457.0790710449219 290.59326171875 461.77294921875 287.7693786621094 465.6935424804688 284.7305908203125 C 469.7916870117188 281.5540466308594 473.2174682617188 278.0157775878906 476.1665954589844 273.9134521484375 C 488.2012634277344 257.1727905273438 493.1279907226562 229.939453125 502.9432678222656 175.6833190917969 L 503.6175537109375 171.9570617675781 C 505.5238647460938 161.4241943359375 506.3507995605469 151.0705261230469 506.0752868652344 141.18359375 C 505.8109436035156 131.6984558105469 504.5267333984375 122.436767578125 502.2582092285156 113.6558532714844 C 497.9652709960938 97.0391845703125 490.1194152832031 81.82644653320312 478.9384155273438 68.440185546875 C 471.7034606933594 59.77825927734375 463.0713500976562 51.89825439453125 453.2816772460938 45.01910400390625 C 443.8767395019531 38.41036987304688 433.400146484375 32.7191162109375 422.142822265625 28.1033935546875 C 400.2752075195312 19.1373291015625 375.8992004394531 14.39810180664062 351.6502075195312 14.39810180664062 M 351.6502075195312 13.39810180664062 C 434.6870727539062 13.39810180664062 523.3095092773438 68.77059936523438 504.6015319824219 172.1351013183594 C 475.4128112792969 333.4077758789062 489.8135375976562 263.2393798828125 252.6683959960938 372.1719055175781 C 205.4680480957031 393.8533630371094 166.5700988769531 403.0489501953125 134.6739501953125 403.0489501953125 C 6.3167724609375 403.0489501953125 -9.01556396484375 254.3189697265625 0.73516845703125 172.1351013183594 C 12.908935546875 69.52899169921875 172.7354736328125 167.2946472167969 237.2069396972656 66.85110473632812 C 260.3567199707031 30.78485107421875 305.1302490234375 13.39810180664062 351.6502075195312 13.39810180664062 Z" stroke="none" fill="#d3d3d3"/>
    </g>
    <g transform="matrix(1, 0, 0, 1, 3474, -649.31)" filter="url(#Tracé_302)">
      <path id="Tracé_302-2" data-name="Tracé 302" d="M218.013,62.556C277.3-29.817,490.765,11.066,463.921,159.38s-13.6,83.784-231.689,183.963S-10.653,253.741.543,159.38,158.722,154.928,218.013,62.556Z" transform="translate(618.03 547.49) rotate(-156)" fill="#758dd0"/>
    </g>
  </g>
</svg>
