<svg xmlns="http://www.w3.org/2000/svg" width="414.497" height="220.611" viewBox="0 0 414.497 220.611">
  <g id="Groupe_12" data-name="Groupe 12" transform="translate(-0.161 -77.817)">
    <path id="Tracé_16" data-name="Tracé 16" d="M570.99,340.252h-61V327.067a3.156,3.156,0,0,0-3.156-3.156H488.915V309.857a1.987,1.987,0,0,0-1.987-1.987H463.852a1.987,1.987,0,0,0-1.987,1.987v14.055H440.8a3.156,3.156,0,0,0-3.156,3.156v13.185H379.477a.642.642,0,0,0-.637.642V516.061a.642.642,0,0,0,.637.642h38.661a.642.642,0,0,0,.642-.642V492.5a.646.646,0,0,1,.642-.642h16.331a.646.646,0,0,1,.642.642v23.565a.642.642,0,0,0,.637.642h76.4a.646.646,0,0,0,.642-.642V492.5a.642.642,0,0,1,.637-.642h16.331a.642.642,0,0,1,.642.642v23.565a.646.646,0,0,0,.642.642H570.98a.646.646,0,0,0,.641-.642V340.9a.646.646,0,0,0-.632-.651ZM411.859,483.669a.637.637,0,0,1-.637.637H387.343a.637.637,0,0,1-.642-.637v-8.156a.642.642,0,0,1,.642-.642h23.893a.642.642,0,0,1,.637.642Zm0-21.075a.637.637,0,0,1-.637.642H387.343a.637.637,0,0,1-.642-.642v-8.151a.637.637,0,0,1,.642-.642h23.893a.637.637,0,0,1,.637.642Zm0-21.07a.642.642,0,0,1-.637.642H387.343a.642.642,0,0,1-.642-.642v-8.156a.642.642,0,0,1,.642-.642h23.893a.642.642,0,0,1,.637.642Zm0-21.075a.637.637,0,0,1-.637.642H387.343a.637.637,0,0,1-.642-.642V412.3a.637.637,0,0,1,.642-.642h23.893a.637.637,0,0,1,.637.642Zm0-21.07a.642.642,0,0,1-.637.642H387.343a.642.642,0,0,1-.642-.642v-8.156a.637.637,0,0,1,.642-.637h23.893a.637.637,0,0,1,.637.637Zm0-21.07a.637.637,0,0,1-.637.637H387.343a.637.637,0,0,1-.642-.637v-8.156a.642.642,0,0,1,.642-.642h23.893a.642.642,0,0,1,.637.642Zm0-21.075a.637.637,0,0,1-.637.642H387.343a.637.637,0,0,1-.642-.642v-8.151a.637.637,0,0,1,.642-.642h23.893a.637.637,0,0,1,.637.642Zm56.613,126.43a.637.637,0,0,1-.642.637H443.951a.642.642,0,0,1-.642-.637v-8.151a.646.646,0,0,1,.642-.642h23.879a.642.642,0,0,1,.642.642Zm0-21.075a.637.637,0,0,1-.642.642H443.951a.642.642,0,0,1-.642-.642v-8.147a.642.642,0,0,1,.642-.642h23.879a.637.637,0,0,1,.642.642Zm0-21.07a.642.642,0,0,1-.642.642H443.951a.646.646,0,0,1-.642-.642v-8.151a.647.647,0,0,1,.642-.642h23.879a.642.642,0,0,1,.642.642Zm0-21.075a.637.637,0,0,1-.642.642H443.951a.642.642,0,0,1-.642-.642V412.3a.642.642,0,0,1,.642-.642h23.879a.637.637,0,0,1,.642.642Zm0-21.07a.642.642,0,0,1-.642.642H443.951a.646.646,0,0,1-.642-.642v-8.151a.642.642,0,0,1,.642-.637h23.879a.637.637,0,0,1,.642.637Zm0-21.07a.637.637,0,0,1-.642.637H443.951a.642.642,0,0,1-.642-.637v-8.151a.646.646,0,0,1,.642-.642h23.879a.642.642,0,0,1,.642.642Zm0-21.075a.637.637,0,0,1-.642.642H443.951a.642.642,0,0,1-.642-.642v-8.147a.642.642,0,0,1,.642-.642h23.879a.637.637,0,0,1,.642.642Zm38.685,126.43a.637.637,0,0,1-.642.637H482.636a.642.642,0,0,1-.642-.637v-8.146a.646.646,0,0,1,.642-.642h23.879a.642.642,0,0,1,.642.642Zm0-21.075a.637.637,0,0,1-.642.642H482.636a.642.642,0,0,1-.642-.642v-8.142a.642.642,0,0,1,.642-.642h23.879a.637.637,0,0,1,.642.642Zm0-21.07a.642.642,0,0,1-.642.642H482.636a.647.647,0,0,1-.642-.642v-8.147a.646.646,0,0,1,.642-.642h23.879a.642.642,0,0,1,.642.642Zm0-21.075a.637.637,0,0,1-.642.642H482.636a.642.642,0,0,1-.642-.642V412.3a.642.642,0,0,1,.642-.642h23.879a.637.637,0,0,1,.642.642Zm0-21.07a.642.642,0,0,1-.642.642H482.636a.646.646,0,0,1-.642-.642v-8.146a.642.642,0,0,1,.642-.637h23.879a.637.637,0,0,1,.642.637Zm0-21.07a.637.637,0,0,1-.642.637H482.636a.642.642,0,0,1-.642-.637v-8.147a.646.646,0,0,1,.642-.642h23.879a.642.642,0,0,1,.642.642Zm0-21.075a.637.637,0,0,1-.642.642H482.636a.642.642,0,0,1-.642-.642v-8.142a.642.642,0,0,1,.642-.642h23.879a.637.637,0,0,1,.642.642Zm56.613,126.43a.642.642,0,0,1-.642.637H539.249a.637.637,0,0,1-.642-.637v-8.142a.642.642,0,0,1,.642-.642h23.879a.646.646,0,0,1,.642.642Zm0-21.075a.642.642,0,0,1-.642.642H539.249a.637.637,0,0,1-.632-.627v-8.151a.637.637,0,0,1,.642-.642h23.879a.642.642,0,0,1,.642.642Zm0-21.07a.647.647,0,0,1-.642.642H539.249a.642.642,0,0,1-.642-.642v-8.142a.642.642,0,0,1,.642-.642h23.879a.646.646,0,0,1,.642.642Zm0-21.075a.642.642,0,0,1-.642.642H539.249a.637.637,0,0,1-.642-.642V412.3a.637.637,0,0,1,.642-.642h23.879a.642.642,0,0,1,.642.642Zm0-21.07a.647.647,0,0,1-.642.642H539.249a.642.642,0,0,1-.632-.627v-8.156a.637.637,0,0,1,.642-.637h23.879a.642.642,0,0,1,.642.637Zm0-21.07a.642.642,0,0,1-.642.637H539.249a.637.637,0,0,1-.642-.637v-8.142a.642.642,0,0,1,.642-.642h23.879a.646.646,0,0,1,.642.642Zm0-21.075a.642.642,0,0,1-.642.642H539.249a.637.637,0,0,1-.642-.642v-8.137a.637.637,0,0,1,.642-.642h23.879a.642.642,0,0,1,.642.642Z" transform="translate(-275.715 -230.053)" fill="#f2f2f2"/>
    <path id="Tracé_17" data-name="Tracé 17" d="M289.779,110.293l-4.946,3.136,3-5.462a4.892,4.892,0,0,0-2.989-1.068h-.08a5.763,5.763,0,0,1-1.026-.076l-1.676,1.074.717-1.307a5.946,5.946,0,0,1-2.932-2.231l-3,1.912,1.893-3.445a8.772,8.772,0,0,0-6.721-3.4,9.212,9.212,0,0,0-7.693,4.745,5.736,5.736,0,0,1-5.1,2.74h-.166c-3.445,0-6.236,3.907-6.236,8.725s2.791,8.722,6.236,8.722a4.691,4.691,0,0,0,2.17-.545,8.989,8.989,0,0,1,7.549-.147,7.858,7.858,0,0,0,6.418,0,9,9,0,0,1,7.479.147,4.691,4.691,0,0,0,2.151.532c3.445,0,6.236-3.907,6.236-8.722A11.06,11.06,0,0,0,289.779,110.293Z" transform="translate(-197.243 -15.026)" fill="#f2f2f2"/>
    <path id="Tracé_18" data-name="Tracé 18" d="M280.485,147.291a9.206,9.206,0,0,0-5.344.58,7.868,7.868,0,0,1-6.415,0,9,9,0,0,0-7.549.15,4.691,4.691,0,0,1-2.173.542c-3.059,0-5.605-3.081-6.134-7.148a5.9,5.9,0,0,0,1.53-1.647,8.584,8.584,0,0,1,15.34-.073,5.889,5.889,0,0,0,5.083,2.791h.08C277.349,142.489,279.459,144.442,280.485,147.291Z" transform="translate(-197.271 -39.261)" opacity="0.03"/>
    <path id="Tracé_19" data-name="Tracé 19" d="M865.569,295.347l-3.3,2.072,2-3.639a3.264,3.264,0,0,0-1.992-.711h-.051a3.66,3.66,0,0,1-.685-.051l-1.115.711.477-.872a4,4,0,0,1-1.953-1.481l-2,1.277,1.277-2.3a5.847,5.847,0,0,0-4.473-2.255,6.1,6.1,0,0,0-5.107,3.162,3.83,3.83,0,0,1-3.4,1.826h-.111c-2.294,0-4.153,2.6-4.153,5.809s1.86,5.809,4.153,5.809a3.115,3.115,0,0,0,1.447-.362,5.993,5.993,0,0,1,5.026-.1,5.246,5.246,0,0,0,4.277,0,6.005,6.005,0,0,1,4.983.1,3.1,3.1,0,0,0,1.43.353c2.294,0,4.154-2.6,4.154-5.809A7.409,7.409,0,0,0,865.569,295.347Z" transform="translate(-495.099 -155.769)" fill="#f2f2f2"/>
    <path id="Tracé_20" data-name="Tracé 20" d="M859.36,314.054a6.179,6.179,0,0,0-3.562.387,5.224,5.224,0,0,1-2.128.451,5.28,5.28,0,0,1-2.128-.46,6,6,0,0,0-5.03.1,3.1,3.1,0,0,1-1.447.362c-2.038,0-3.732-2.051-4.085-4.762a3.94,3.94,0,0,0,1.021-1.1A5.719,5.719,0,0,1,852.215,309a3.923,3.923,0,0,0,3.4,1.86h.055C857.271,310.858,858.675,312.16,859.36,314.054Z" transform="translate(-545.099 -213.977)" opacity="0.03"/>
    <path id="Tracé_21" data-name="Tracé 21" d="M527.687,753.372V755.5a8.137,8.137,0,0,1-8.9,8.086c-16.661-1.583-33.245-4.528-49.961-4.017-30.819.941-61.894,13.546-91.726,5.758-8.413-2.2-16.733-6.013-25.389-5.192-7.766.736-14.678,5.128-22.2,7.188-22.882,6.281-46.178-9.592-69.9-8.954-15.635.426-30.606,8.039-46.224,7.192-9.052-.485-17.674-3.8-26.5-5.835-21.985-5.081-44.624-2.238-67.277-.477a5.958,5.958,0,0,1-6.413-5.924v-1.8a5.958,5.958,0,0,1,5.958-5.958l400.42-.324A8.137,8.137,0,0,1,527.687,753.372Z" transform="translate(-113.029 -470.368)" fill="#3f3d56"/>
    <path id="Tracé_22" data-name="Tracé 22" d="M527.687,753.372V755.5a8.137,8.137,0,0,1-8.9,8.086c-16.661-1.583-33.245-4.528-49.961-4.017-30.819.941-61.894,13.546-91.726,5.758-8.413-2.2-16.733-6.013-25.389-5.192-7.766.736-14.678,5.128-22.2,7.188-22.882,6.281-46.178-9.592-69.9-8.954-15.635.426-30.606,8.039-46.224,7.192-9.052-.485-17.674-3.8-26.5-5.835-21.985-5.081-44.624-2.238-67.277-.477a5.958,5.958,0,0,1-6.413-5.924v-1.8a5.958,5.958,0,0,1,5.958-5.958l400.42-.324A8.137,8.137,0,0,1,527.687,753.372Z" transform="translate(-113.029 -470.368)" opacity="0.1"/>
    <path id="Tracé_23" data-name="Tracé 23" d="M527.687,744.222v2.128a8.714,8.714,0,0,1-.047.885,8.133,8.133,0,0,1-8.852,7.235c-16.661-1.587-33.245-4.532-49.961-4.018-30.819.945-61.894,13.55-91.725,5.758-8.413-2.2-16.733-6.013-25.389-5.192-7.766.736-14.678,5.107-22.2,7.192-22.882,6.247-46.178-9.626-69.9-8.967-15.635.426-30.606,8.039-46.225,7.2-9.052-.489-17.674-3.8-26.5-5.839-21.98-5.077-44.624-2.238-67.277-.476a5.958,5.958,0,0,1-6.324-4.894,5.831,5.831,0,0,1-.089-1.03V742.38a5.958,5.958,0,0,1,5.958-5.958l100.352-.085,205.04-.17,95.02-.077a8.133,8.133,0,0,1,8.128,8.133Z" transform="translate(-113.029 -465.112)" fill="#3f3d56"/>
    <path id="Tracé_24" data-name="Tracé 24" d="M993.706,664.137c1.105-2.03-.151-4.517-1.581-6.33s-3.173-3.685-3.136-6c.055-3.316,3.574-5.273,6.386-7.03a31.288,31.288,0,0,0,5.733-4.61,8.473,8.473,0,0,0,1.761-2.358,9.571,9.571,0,0,0,.527-4.193q-.181-7.1-.7-14.183" transform="translate(-641.599 -390.681)" fill="none" stroke="#3f3d56" stroke-miterlimit="10" stroke-width="4"/>
    <path id="Tracé_25" data-name="Tracé 25" d="M1023.033,610.282a5.158,5.158,0,0,0-2.58-4.237l-1.157,2.292.033-2.775a5.107,5.107,0,0,0-1.7-.2,5.159,5.159,0,1,0,5.41,4.923Z" transform="translate(-656.588 -381.79)" fill="#57b894"/>
    <path id="Tracé_26" data-name="Tracé 26" d="M998.972,700.824a5.159,5.159,0,1,1,.25-4.164l-3.231,2.631,3.556-.825a5.158,5.158,0,0,1-.575,2.358Z" transform="translate(-641.75 -437.331)" fill="#57b894"/>
    <path id="Tracé_27" data-name="Tracé 27" d="M999.24,668.755a5.159,5.159,0,0,1-1.64-10.148l-.029,2.13,1.172-2.318h0a5.174,5.174,0,0,1,.5,10.336Z" transform="translate(-644.572 -415.299)" fill="#57b894"/>
    <path id="Tracé_28" data-name="Tracé 28" d="M1033.542,646.107a5.164,5.164,0,1,1,2.284-9.661l-.913,2.5,1.883-1.8a5.158,5.158,0,0,1,1.669,3.567,5.066,5.066,0,0,1-.129,1.426A5.159,5.159,0,0,1,1033.542,646.107Z" transform="translate(-666.32 -401.008)" fill="#57b894"/>
    <path id="Tracé_29" data-name="Tracé 29" d="M1022.374,616.515c-1.194.133-2.355.5-3.552.579a3.866,3.866,0,0,1-3.272-1.146,16.012,16.012,0,0,1-.954-1.684,3.684,3.684,0,0,0-1.3-1.223,5.159,5.159,0,1,0,9.669,3.431C1022.765,616.482,1022.57,616.493,1022.374,616.515Z" transform="translate(-656.626 -386.645)" opacity="0.1"/>
    <path id="Tracé_30" data-name="Tracé 30" d="M1033.521,651.169a5.159,5.159,0,0,1-4.919-7.37,3.784,3.784,0,0,1,1.039,1.043,16.873,16.873,0,0,0,1.024,1.706,4.212,4.212,0,0,0,3.43,1.2c1.249-.059,2.455-.409,3.685-.523.173-.019.346-.03.523-.033A5.159,5.159,0,0,1,1033.521,651.169Z" transform="translate(-666.298 -406.071)" opacity="0.1"/>
    <path id="Tracé_31" data-name="Tracé 31" d="M999.445,674a5.159,5.159,0,0,1-4.963-7.281,4.048,4.048,0,0,1,1.105,1.05c.4.567.653,1.22,1.106,1.743a4.788,4.788,0,0,0,3.659,1.282c1.319-.03,2.516-.343,3.788-.439A5.177,5.177,0,0,1,999.445,674Z" transform="translate(-644.777 -420.545)" opacity="0.1"/>
    <path id="Tracé_32" data-name="Tracé 32" d="M998.735,706.489a14.66,14.66,0,1,0-8.295-3.206,21.809,21.809,0,0,0,1.386,1.842,6.439,6.439,0,0,0,4.285,1.5A22.122,22.122,0,0,0,998.735,706.489Z" transform="translate(-641.514 -442.996)" opacity="0.1"/>
    <path id="Tracé_33" data-name="Tracé 33" d="M980.62,730.638s4.083-.129,5.313-1,6.264-1.923,6.581-.52,6.135,7,1.525,7.027-10.686-.737-11.935-1.474S980.62,730.638,980.62,730.638Z" transform="translate(-636.314 -459.517)" fill="#656380"/>
    <path id="Tracé_56" data-name="Tracé 56" d="M178.505,609.512a5.791,5.791,0,0,0,.767-2.941c0-2.658-1.642-4.811-3.678-4.811s-3.676,2.153-3.676,4.811a5.791,5.791,0,0,0,.767,2.941,2268036.032,2268036.032,0,0,1,0,11.766,6.023,6.023,0,0,0,0,5.883,5.8,5.8,0,0,0-.767,2.941c0,2.658,1.642,4.813,3.676,4.813s3.678-2.156,3.678-4.813a5.8,5.8,0,0,0-.767-2.941,6.024,6.024,0,0,0,0-5.876,6.024,6.024,0,0,0,0-5.883,6.024,6.024,0,0,0,0-5.883Z" transform="translate(-120.055 -360.949)" fill="#3f3d56"/>
    <path id="Tracé_57" data-name="Tracé 57" d="M116.578,307.446a17.906,17.906,0,0,1-1.37-2.015l9.662-1.588-10.45.077a17.644,17.644,0,0,1-.335-13.949l14.015,7.271-12.924-9.507a17.611,17.611,0,1,1,29.085,19.7,17.438,17.438,0,0,1,2.008,3.211l-12.54,6.53,13.37-4.487a17.625,17.625,0,0,1-2.841,16.539,17.611,17.611,0,1,1-27.678,0,17.611,17.611,0,0,1,0-21.777Z" transform="translate(-74.81 -113.843)" fill="#57b894"/>
    <path id="Tracé_58" data-name="Tracé 58" d="M148.068,446.073a17.545,17.545,0,0,1-3.769,10.888,17.611,17.611,0,1,1-27.678,0C114.249,453.963,148.068,444.1,148.068,446.073Z" transform="translate(-74.841 -241.581)" opacity="0.1"/>
    <g id="Groupe_23" data-name="Groupe 23" transform="translate(0 158.875)">
      <path id="Tracé_35" data-name="Tracé 35" d="M723.79,593.706c0,2.538,1.3,2.687,3.47,4.6s3.469-2.057,3.469-4.6-1.554-4.6-3.469-4.6S723.79,591.168,723.79,593.706Z" transform="translate(-554.327 -493.071)" fill="#6f434e"/>
      <path id="Tracé_36" data-name="Tracé 36" d="M577.74,469.31a1.275,1.275,0,0,0,.5,1.412,4.821,4.821,0,0,0,1.47.64,9.606,9.606,0,0,1,5.448,4.472,7.748,7.748,0,0,1,.21,6.949c-.57,1.151-1.453,2.128-1.976,3.3a7.388,7.388,0,0,0,.993,7.237c1.511,2.058,4.47,2.455,6.94,3.093,0,0,6.384,5.016,8.664,3.648" transform="translate(-430.419 -391.48)" fill="none" stroke="#3f3d56" stroke-miterlimit="10" stroke-width="1"/>
      <path id="Tracé_37" data-name="Tracé 37" d="M614.309,719.69s-.3,2.584,1.064,2.736a17.584,17.584,0,0,0,2.006.065,2.19,2.19,0,0,0,1.835-3.344l-.041-.064C617.805,716.954,614.309,719.69,614.309,719.69Z" transform="translate(-461.463 -602.601)" fill="#6f434e"/>
      <path id="Tracé_38" data-name="Tracé 38" d="M603.358,683.92s3.344,4.408,8.36.456-1.064-5.776-1.064-5.776H604.27l-3.8,1.672Z" transform="translate(-449.752 -568.958)" fill="#b56d7e"/>
      <path id="Tracé_39" data-name="Tracé 39" d="M694.186,689.6s1.52,1.824,2.888,1.672c1.1-.122,3.271.93,2.911,2.842a2.162,2.162,0,0,1-2.526,1.745,1.731,1.731,0,0,1-1.3-1.091s-4.864.3-4.712-1.064S694.186,689.6,694.186,689.6Z" transform="translate(-526.9 -578.286)" fill="#6f434e"/>
      <path id="Tracé_40" data-name="Tracé 40" d="M574.225,598.294s1.976,3.04,0,5.016a8.015,8.015,0,0,1-4.1,2.28s.76,1.368-2.128,1.216-3.8-1.064-2.888-2.432,3.192-2.888,2.736-3.952-1.064-3.344-.152-4.712a5.026,5.026,0,0,1-.958-1.055A1.284,1.284,0,0,1,568.657,593l.856.734s2.584-2.128,8.208-1.064c0,0,2.28-.152,2.736-1.824,0,0-2.432-5.32,3.952-9.272a7.642,7.642,0,0,1,3.648-.608c2.128.152,4.408.3,5.928,3.648a9.911,9.911,0,0,0,2.7,3.159,3.215,3.215,0,0,1,1.479,2.24c.439,2.619-.117,6.784-9.044,4.633,0,0-.684,5.548-4.94,7.828,0,0-.3,1.52,0,1.976s1.824,2.584-.608,2.432c-1.216-.075-2.154-.076-2.8-.056a1.52,1.52,0,0,1-1.33-2.335c.008-.014.017-.027.026-.041a4.578,4.578,0,0,0-1.064-3.8l-.3-1.824Z" transform="translate(-419.474 -486.145)" fill="#9c5e6d"/>
      <ellipse id="Ellipse_9" data-name="Ellipse 9" cx="1.976" cy="0.76" rx="1.976" ry="0.76" transform="translate(174.202 102.575)" fill="#6f434e"/>
      <path id="Tracé_41" data-name="Tracé 41" d="M397.831,648.757a7.447,7.447,0,0,1-1.415.608c-.879.24-1.824.152-2.707.357a1.117,1.117,0,0,0-.874.608,1.242,1.242,0,0,0,.1.8c.98,2.876,1.572,5.928,3.137,8.538a12.91,12.91,0,0,0,2.423,2.94,2.315,2.315,0,0,0,1.234.685A1.256,1.256,0,0,0,401,661.531c-.141-.3-.4-.553-.57-.851a3.227,3.227,0,0,1-.315-1.216,7.893,7.893,0,0,1,.123-3.681,12.352,12.352,0,0,1,1.246-2.154,3.769,3.769,0,0,0,.7-2.345,4.083,4.083,0,0,0-.632-1.567c-.29-.488-.866-1.8-1.452-1.965S398.361,648.485,397.831,648.757Z" transform="translate(-273.647 -542.782)" fill="#fff"/>
      <path id="Tracé_42" data-name="Tracé 42" d="M524.615,700.775a2.453,2.453,0,0,1-.114.822c-.184.483-.638.815-.872,1.275a2.817,2.817,0,0,0,.038,2.1,2.154,2.154,0,0,0,.676,1.143,2.247,2.247,0,0,0,1.031.33,87.3,87.3,0,0,0,9.445.275,3.219,3.219,0,0,0,1.684-.245,1.06,1.06,0,0,0,.47-1.449c-.3-.415-.912-.41-1.426-.436a5.864,5.864,0,0,1-3.621-1.491,2.586,2.586,0,0,1-.508-.584,3.5,3.5,0,0,1-.266-.608,27.252,27.252,0,0,0-1.573-3.482,1.835,1.835,0,0,0-.676-.81,1.793,1.793,0,0,0-.733-.159c-.786-.052-2.82-.319-3.426.292C524.183,698.311,524.627,700.059,524.615,700.775Z" transform="translate(-384.429 -584.862)" fill="#fff"/>
      <circle id="Ellipse_10" data-name="Ellipse 10" cx="5.016" cy="5.016" r="5.016" transform="translate(140.002 36.151)" fill="#fbbebe"/>
      <path id="Tracé_43" data-name="Tracé 43" d="M524.58,242.376a3.78,3.78,0,0,1-1.54,1.976l6.937,1.415a7.323,7.323,0,0,1-.1-3.093,1.806,1.806,0,0,0,.041-.76c-.131-.5-.7-.746-1.2-.862a16.17,16.17,0,0,1-3.563-1A17,17,0,0,0,524.58,242.376Z" transform="translate(-384.091 -197.068)" fill="#fbbebe"/>
      <path id="Tracé_44" data-name="Tracé 44" d="M487.6,253.313a5.43,5.43,0,0,1,4.729.125,10.7,10.7,0,0,1,2.35,1.874,3.748,3.748,0,0,1,1.426,2.306,6.42,6.42,0,0,1-.189,1.33,4.461,4.461,0,0,0,2.386,4.581,6.075,6.075,0,0,1,.673,3.1c.032,4.057-1.248,8.164-.334,12.117.214.927.547,1.824.733,2.76.24,1.216.228,2.455.354,3.683a16.482,16.482,0,0,0,.885,3.894,1.617,1.617,0,0,1-1.5.625,4.24,4.24,0,0,1-1.6-.543c-2.444-1.251-4.685-2.9-7.217-3.964-1.672-.7-3.46-1.142-5.084-1.955a6.667,6.667,0,0,1-3.634-3.849,9.075,9.075,0,0,1-.24-2.338,42.415,42.415,0,0,1,.626-9.88c.634-2.848,1.859-5.572,2.128-8.479a5.758,5.758,0,0,1,.617-2.748C485.452,254.833,487.065,254.549,487.6,253.313Z" transform="translate(-348.706 -207.907)" fill="#3f3d56"/>
      <path id="Tracé_45" data-name="Tracé 45" d="M513.823,185.916a1.3,1.3,0,0,1,1.339-.324c.473.114.912.357,1.383.456a.815.815,0,0,0,.649-.091.946.946,0,0,0,.28-.619,11.8,11.8,0,0,0,.116-3.008.9.9,0,0,1,.027-.423c.119-.284.479-.353.772-.444a2.3,2.3,0,0,0,1.561-2.359.932.932,0,0,0-.287-.648,1.187,1.187,0,0,0-.751-.179q-2.021-.015-4.045,0a2.891,2.891,0,0,0-1.456.266,7.046,7.046,0,0,0-.845.711,8.2,8.2,0,0,1-2.672,1.037,2.651,2.651,0,0,0-1.172.7,1.233,1.233,0,0,0-.258,1.28,4.669,4.669,0,0,0,.327.5c.538.859.179,1.976.26,2.984a5.458,5.458,0,0,0,3.233,3.607C514.327,189.842,513.146,186.741,513.823,185.916Z" transform="translate(-371.657 -144.679)" fill="#3f3d56"/>
      <path id="Tracé_46" data-name="Tracé 46" d="M520.173,543.47a14.975,14.975,0,0,1,.251,2.776c-.062,1.3-.529,2.548-.616,3.843-.065.968.085,1.947-.05,2.908-.087.608-.286,1.207-.41,1.824a7.512,7.512,0,0,0,1.207,5.749.939.939,0,0,0,.35.34,1,1,0,0,0,.435.058,31.25,31.25,0,0,0,4.358-.4.3.3,0,0,0,.34-.289c.268-1.368-.342-2.751-.5-4.142a12.85,12.85,0,0,1,.544-4.426,19.5,19.5,0,0,1,.6-2.116c.17-.468.377-.921.526-1.4a10.634,10.634,0,0,0,.382-2.28q.152-1.824.163-3.671a15.827,15.827,0,0,0-.287-3.464,18.339,18.339,0,0,0-1.652-4.1,2.661,2.661,0,0,0-.971.456,21.866,21.866,0,0,1-2.659,1.468c-.617.286-1.824.489-2.213,1.088s-.137,1.791-.108,2.441Q519.942,541.81,520.173,543.47Z" transform="translate(-380.839 -446.914)" fill="#3f3d56"/>
      <path id="Tracé_47" data-name="Tracé 47" d="M520.173,543.47a14.975,14.975,0,0,1,.251,2.776c-.062,1.3-.529,2.548-.616,3.843-.065.968.085,1.947-.05,2.908-.087.608-.286,1.207-.41,1.824a7.512,7.512,0,0,0,1.207,5.749.939.939,0,0,0,.35.34,1,1,0,0,0,.435.058,31.25,31.25,0,0,0,4.358-.4.3.3,0,0,0,.34-.289c.268-1.368-.342-2.751-.5-4.142a12.85,12.85,0,0,1,.544-4.426,19.5,19.5,0,0,1,.6-2.116c.17-.468.377-.921.526-1.4a10.634,10.634,0,0,0,.382-2.28q.152-1.824.163-3.671a15.827,15.827,0,0,0-.287-3.464,18.339,18.339,0,0,0-1.652-4.1,2.661,2.661,0,0,0-.971.456,21.866,21.866,0,0,1-2.659,1.468c-.617.286-1.824.489-2.213,1.088s-.137,1.791-.108,2.441Q519.942,541.81,520.173,543.47Z" transform="translate(-380.839 -446.914)" opacity="0.1"/>
      <path id="Tracé_48" data-name="Tracé 48" d="M444.211,463.06c-.666,1.794.313,3.732,1.164,5.445a95.6,95.6,0,0,1,4.992,13.212,1.617,1.617,0,0,1,.1,1.034,1.343,1.343,0,0,1-.488.579,11.5,11.5,0,0,1-3.458,1.426,15.664,15.664,0,0,0-3.28,1.537c-.86.534-1.672,1.151-2.473,1.766l-2.564,1.958a1.688,1.688,0,0,0-.429.415,1.648,1.648,0,0,0-.023,1.338A22.656,22.656,0,0,0,439,495.194a1.2,1.2,0,0,0,.456.6c.4.214.891-.07,1.2-.407s.57-.76,1-.9a8,8,0,0,1,1.353-.032c.728-.1,1.216-.772,1.734-1.286,2.14-2.1,5.714-1.949,8.07-3.8a10.821,10.821,0,0,1,1.078-.844c.392-.236.85-.363,1.263-.572a5.354,5.354,0,0,0,2.469-3.282c.423-1.341.544-2.757.848-4.131a19.255,19.255,0,0,0,.433-2.128,11.507,11.507,0,0,0-.043-2.02l-.85-10.511c-.07-.856-.138-1.712-.274-2.56-2.523.09-5.045.191-7.57.222A18.371,18.371,0,0,1,444.211,463.06Z" transform="translate(-311.652 -386.18)" fill="#3f3d56"/>
      <path id="Tracé_49" data-name="Tracé 49" d="M473.5,456.217a1.346,1.346,0,0,0,1.748.239c.573-.3,1.02-.81,1.595-1.108a5.179,5.179,0,0,1,2.558-.363,16.818,16.818,0,0,1,4.1.456c1.368.391,2.707,1.143,4.127.993a.852.852,0,0,0,.651-.3.981.981,0,0,0,.108-.491l.046-1.24a1.122,1.122,0,0,0-.1-.626,1.047,1.047,0,0,0-.47-.36,16.242,16.242,0,0,0-6.563-1.237q-1.71-.056-3.422-.047a12.194,12.194,0,0,0-3.07.125C473.544,452.6,472.857,455.188,473.5,456.217Z" transform="translate(-341.873 -376.88)" fill="#3f3d56"/>
      <path id="Tracé_50" data-name="Tracé 50" d="M484.6,255.557c-2.646-.023-5.043-1.769-7.688-1.812a2.015,2.015,0,0,0-.935.161,3.514,3.514,0,0,0-.891.848c-.781.847-1.915,1.3-2.718,2.128a3.135,3.135,0,0,0-.876,2.969,2.207,2.207,0,0,0,2.472,1.587,6.369,6.369,0,0,1,2.482-3.371,12.461,12.461,0,0,1,1.94-1.018,5.365,5.365,0,0,1,3.76-.684,5.29,5.29,0,0,1,1.283.7l2.069,1.389A14.377,14.377,0,0,0,484.6,255.557Z" transform="translate(-340.301 -208.678)" fill="#758dd0"/>
      <path id="Tracé_51" data-name="Tracé 51" d="M465.728,272.528c-.351.438.152,1.073.078,1.629-.052.369-.356.652-.483,1a5.508,5.508,0,0,0-.111,1.149,4.983,4.983,0,0,1-.22.819,14.716,14.716,0,0,0-.465,2.432l-.464,3.46a12.963,12.963,0,0,0-.152,1.57,4.462,4.462,0,0,1-.079,1.175,8.08,8.08,0,0,1-.482,1.064,1.249,1.249,0,0,0-.017,1.129,1.973,1.973,0,0,0-.413,2.464,1.35,1.35,0,0,1,.213.392,1,1,0,0,1-.094.578l-.468,1.248c-.12.319-.152.806.176.879a2.932,2.932,0,0,0-.632,1,1.186,1.186,0,0,0,.169,1.126,1.481,1.481,0,0,1,.293.356.939.939,0,0,1-.035.561,2.059,2.059,0,0,0,.255,1.616,1.447,1.447,0,0,0,1.458.625,6.657,6.657,0,0,1,2.722-.371,48.445,48.445,0,0,1,6.044,1.377c2.247.717,4.423,1.769,6.773,1.99a.651.651,0,0,0,.456-.07.682.682,0,0,0,.21-.43l.728-3.4a34.93,34.93,0,0,0,.667-3.814c.084-.827.106-1.66.131-2.491l.187-6.618a6.591,6.591,0,0,0-.377-2.877l-1.076-3.435c-.608-1.961-2.023-3.7-2.525-5.692a8.4,8.4,0,0,0-1.4-3.6c-1.216-1.4-3.314-1.619-5.151-1.379a6.256,6.256,0,0,0-2.386.728,7.791,7.791,0,0,0-2.035,2.049C466.724,271.4,466.227,271.9,465.728,272.528Z" transform="translate(-332.364 -220.689)" fill="#758dd0"/>
      <path id="Tracé_52" data-name="Tracé 52" d="M513.583,402.438c.152.654.47,1.256.664,1.9.325,1.075.3,2.233.623,3.308.137.456.336.885.433,1.345a5.567,5.567,0,0,1-.52,3.206,12.54,12.54,0,0,0-1.055,3.113,2.371,2.371,0,0,0,.634,2.128,3.111,3.111,0,0,0,2.309.413,2.454,2.454,0,0,0,.839-.173A2.282,2.282,0,0,0,518.525,416a24.9,24.9,0,0,0,.2-6.785l-.362-5.926a14.183,14.183,0,0,0-.5-3.4,3.243,3.243,0,0,0-.714-1.459,4.764,4.764,0,0,0-1.836-.284C513.22,398.049,513.244,400.972,513.583,402.438Z" transform="translate(-375.927 -331.132)" fill="#fbbebe"/>
      <path id="Tracé_53" data-name="Tracé 53" d="M506.417,281.73a1.437,1.437,0,0,0-1.379.123,4.294,4.294,0,0,0-1.035,1c-.924,1.128-1.9,2.423-1.765,3.875a9.768,9.768,0,0,0,.4,1.588c.619,2.315-.065,4.765.012,7.162a22.48,22.48,0,0,0,.648,4.1c.061.275.152.594.426.689a.911.911,0,0,0,.608-.1,4.913,4.913,0,0,1,4.495.565c.5-.264.3-1.1.2-1.652a9.508,9.508,0,0,1,.663-4.905,18.129,18.129,0,0,0,1.287-4.823,14.742,14.742,0,0,0-1.143-5.524,2.327,2.327,0,0,0-.6-1.064,2.371,2.371,0,0,0-.9-.41A11.38,11.38,0,0,1,506.417,281.73Z" transform="translate(-366.44 -232.306)" fill="#3f3d56"/>
      <path id="Tracé_54" data-name="Tracé 54" d="M667.47,647.6s4.56,5.016,8.664,3.648" transform="translate(-506.568 -542.67)" fill="none" stroke="#3f3d56" stroke-miterlimit="10" stroke-width="1"/>
      <path id="Tracé_55" data-name="Tracé 55" d="M665.087,593.706c0,2.538-1.3,2.687-3.469,4.6s-3.469-2.057-3.469-4.6,1.553-4.6,3.469-4.6S665.087,591.168,665.087,593.706Z" transform="translate(-498.664 -493.071)" fill="#6f434e"/>
    </g>
  </g>
</svg>
