<svg xmlns="http://www.w3.org/2000/svg" width="145.728" height="159.777" viewBox="0 0 145.728 159.777">
  <g id="Groupe_28" data-name="Groupe 28" transform="translate(-6425.191 -2303.583)">
    <path id="Tracé_257" data-name="Tracé 257" d="M6582.727,2335.478s-5.691-7.813-4.606-12.876,5.36-14.788,16.988-17c8.369-.572,17.592,13.537,16.821,17s-5.67,12.876-5.67,12.876" transform="translate(-96.438 0)" fill="none" stroke="#0e092b" stroke-linecap="round" stroke-linejoin="round" stroke-width="4"/>
    <path id="Tracé_258" data-name="Tracé 258" d="M6681.235,2395.506s13.838-18.383,24.38-9.962,30.775,34.422,24.6,49.4c-8.763,1.125-18-18.926-26.113-17.566" transform="translate(-162.492 -50.46)" fill="none" stroke="#0e092b" stroke-linecap="round" stroke-linejoin="round" stroke-width="4"/>
    <path id="Tracé_259" data-name="Tracé 259" d="M6731.364,2395.506s-13.838-18.383-24.38-9.962-30.776,34.422-24.6,49.4c8.762,1.125,18-18.926,26.113-17.566" transform="translate(-254 -50.46)" fill="none" stroke="#0e092b" stroke-linecap="round" stroke-linejoin="round" stroke-width="4"/>
    <g id="Ellipse_52" data-name="Ellipse 52" transform="translate(6454 2338.39)" fill="none" stroke="#0e092b" stroke-linecap="round" stroke-linejoin="round" stroke-width="4">
      <ellipse cx="44" cy="54.5" rx="44" ry="54.5" stroke="none"/>
      <ellipse cx="44" cy="54.5" rx="42" ry="52.5" fill="none"/>
    </g>
    <path id="Tracé_260" data-name="Tracé 260" d="M6717.006,2622.529c4.239,13.868,1.637,26.369-2.59,28.373s-8.349-9.678-10.013-9.476" transform="translate(-177.313 -202.759)" fill="none" stroke="#0e092b" stroke-linecap="round" stroke-linejoin="round" stroke-width="4"/>
    <path id="Tracé_261" data-name="Tracé 261" d="M6618.5,2707.4a14.715,14.715,0,0,1-6.445,11.012s-5.525-1.984-7.272-11.012" transform="translate(-113.581 -257.056)" fill="none" stroke="#0e092b" stroke-linecap="round" stroke-linejoin="round" stroke-width="4"/>
    <path id="Tracé_262" data-name="Tracé 262" d="M6706.566,2622.529c-4.239,13.868-1.637,26.369,2.591,28.373s8.348-9.678,10.012-9.476" transform="translate(-250.088 -202.759)" fill="none" stroke="#0e092b" stroke-linecap="round" stroke-linejoin="round" stroke-width="4"/>
    <path id="Tracé_263" data-name="Tracé 263" d="M6601.848,2453.026l8.923,13.935-8.923,15.033h-18.164l-8.617-15.033,8.617-13.935Z" transform="translate(-94.573 -94.322)" fill="none" stroke="#0e092b" stroke-linecap="round" stroke-linejoin="round" stroke-width="4"/>
    <path id="Tracé_268" data-name="Tracé 268" d="M6601.848,2453.026l8.923,13.935-8.923,15.033h-18.164l-8.617-15.033,8.617-13.935Z" transform="translate(-94.573 -65.501)" fill="none" stroke="#0e092b" stroke-linecap="round" stroke-linejoin="round" stroke-width="4"/>
    <path id="Tracé_264" data-name="Tracé 264" d="M6590.817,2438.577l-4.754-8.137" transform="translate(-101.607 -79.874)" fill="none" stroke="#0e092b" stroke-linecap="round" stroke-width="4"/>
    <path id="Tracé_265" data-name="Tracé 265" d="M6586.063,2438.577l4.754-8.137" transform="translate(-78.91 -79.874)" fill="none" stroke="#0e092b" stroke-linecap="round" stroke-width="4"/>
    <path id="Tracé_269" data-name="Tracé 269" d="M6583.189,2430.44l-9.05,14.767" transform="translate(-93.979 -13.944)" fill="none" stroke="#0e092b" stroke-linecap="round" stroke-width="4"/>
    <path id="Tracé_271" data-name="Tracé 271" d="M6576.436,2658.2l-2.022-3.978" transform="translate(-94.154 -223.032)" fill="none" stroke="#0e092b" stroke-linecap="round" stroke-width="4"/>
    <path id="Tracé_272" data-name="Tracé 272" d="M6574.139,2430.44l9.05,14.767" transform="translate(-66.959 -13.944)" fill="none" stroke="#0e092b" stroke-linecap="round" stroke-width="4"/>
    <path id="Tracé_273" data-name="Tracé 273" d="M6574.412,2658.2l2.022-3.978" transform="translate(-60.303 -223.032)" fill="none" stroke="#0e092b" stroke-linecap="round" stroke-width="4"/>
    <path id="Tracé_274" data-name="Tracé 274" d="M6541.8,2571.705h-18.733" transform="translate(-61.309 -170.245)" fill="none" stroke="#0e092b" stroke-linecap="round" stroke-width="4"/>
    <path id="Tracé_277" data-name="Tracé 277" d="M6537.7,2571.705h-14.624" transform="translate(-57.201 -199.067)" fill="none" stroke="#0e092b" stroke-linecap="round" stroke-width="4"/>
    <path id="Tracé_275" data-name="Tracé 275" d="M6674.171,2571.705h18.283" transform="translate(-157.973 -170.245)" fill="none" stroke="#0e092b" stroke-linecap="round" stroke-width="4"/>
    <path id="Tracé_276" data-name="Tracé 276" d="M6674.171,2571.705h13.637" transform="translate(-157.973 -199.067)" fill="none" stroke="#0e092b" stroke-linecap="round" stroke-width="4"/>
  </g>
</svg>
