<svg id="Groupe_14" data-name="Groupe 14" xmlns="http://www.w3.org/2000/svg" xmlns:xlink="http://www.w3.org/1999/xlink" width="385.119" height="274.423" viewBox="0 0 385.119 274.423">
  <defs>
    <linearGradient id="linear-gradient" x1="-0.013" y1="0.424" x2="0.96" y2="0.424" gradientUnits="objectBoundingBox">
      <stop offset="0" stop-color="gray" stop-opacity="0.251"/>
      <stop offset="0.54" stop-color="gray" stop-opacity="0.122"/>
      <stop offset="1" stop-color="gray" stop-opacity="0.102"/>
    </linearGradient>
  </defs>
  <path id="Tracé_59" data-name="Tracé 59" d="M547.342,671.162c-2.871,1.48-5.88,2.758-8.844,4.012-10.965,4.625-22.1,9.3-33.874,10.888-22.127,2.964-44.956-5.1-66.692-.069-18.208,4.2-33.265,17.078-51.054,22.813a82.945,82.945,0,0,1-25.559,3.71H360.2c-1.069,0-2.133-.04-3.2-.081a171.848,171.848,0,0,1-26.273-3.295c-27.249-5.242-54.981-14.852-75.814-32.544C315.569,665.512,440.521,648.5,547.342,671.162Z" transform="translate(-201.514 -438.095)" fill="#252223" opacity="0.1"/>
  <path id="Tracé_60" data-name="Tracé 60" d="M366.972,100.413V74.6H351.648v25.809H333.5V60.49H320.193V30.648H309.305V0H286.722V30.648H275.834V60.49h-12.9V24.6h-7.259V6.452h-4.436V24.6H225.426V139.127h-19.76v-12.1h-12.1v12.1h-19.76V100.413H138.32V74.6H123v25.809h-.807v49.6H106.059V120.98H86.7v29.035H70.572V60.49H58.07V30.648H12.1V60.49H0V218.167H385.119V100.413Z" fill="#758dd0" opacity="0.3"/>
  <rect id="Rectangle_32" data-name="Rectangle 32" width="18" height="9" transform="translate(7 69.869)" fill="#fff" opacity="0.4"/>
  <rect id="Rectangle_33" data-name="Rectangle 33" width="17" height="9" transform="translate(63 78.869) rotate(180)" fill="#fff" opacity="0.4"/>
  <rect id="Rectangle_34" data-name="Rectangle 34" width="18" height="11" transform="translate(7 87.869)" fill="#fff" opacity="0.4"/>
  <rect id="Rectangle_35" data-name="Rectangle 35" width="17" height="11" transform="translate(63 98.869) rotate(180)" fill="#fff" opacity="0.4"/>
  <rect id="Rectangle_36" data-name="Rectangle 36" width="18" height="10" transform="translate(7 107.869)" fill="#fff" opacity="0.4"/>
  <rect id="Rectangle_37" data-name="Rectangle 37" width="17" height="10" transform="translate(63 117.869) rotate(180)" fill="#fff" opacity="0.4"/>
  <rect id="Rectangle_38" data-name="Rectangle 38" width="18" height="8" transform="translate(7 126.869)" fill="#fff" opacity="0.4"/>
  <rect id="Rectangle_39" data-name="Rectangle 39" width="17" height="8" transform="translate(63 134.869) rotate(180)" fill="#fff" opacity="0.4"/>
  <rect id="Rectangle_40" data-name="Rectangle 40" width="18" height="8" transform="translate(7 146.869)" fill="#fff" opacity="0.4"/>
  <rect id="Rectangle_41" data-name="Rectangle 41" width="17" height="8" transform="translate(63 154.869) rotate(180)" fill="#fff" opacity="0.4"/>
  <rect id="Rectangle_42" data-name="Rectangle 42" width="18" height="10" transform="translate(7 163.869)" fill="#fff" opacity="0.4"/>
  <rect id="Rectangle_43" data-name="Rectangle 43" width="17" height="10" transform="translate(63 173.869) rotate(180)" fill="#fff" opacity="0.4"/>
  <rect id="Rectangle_44" data-name="Rectangle 44" width="18" height="11" transform="translate(7 182.869)" fill="#fff" opacity="0.4"/>
  <rect id="Rectangle_45" data-name="Rectangle 45" width="17" height="11" transform="translate(63 193.869) rotate(180)" fill="#fff" opacity="0.4"/>
  <rect id="Rectangle_46" data-name="Rectangle 46" width="39" height="5" transform="translate(77 158.869)" fill="#fff" opacity="0.4"/>
  <rect id="Rectangle_47" data-name="Rectangle 47" width="39" height="4" transform="translate(77 166.869)" fill="#fff" opacity="0.4"/>
  <rect id="Rectangle_48" data-name="Rectangle 48" width="39" height="5" transform="translate(77 173.869)" fill="#fff" opacity="0.4"/>
  <rect id="Rectangle_49" data-name="Rectangle 49" width="40" height="4" transform="translate(180 162.869)" fill="#fff" opacity="0.4"/>
  <rect id="Rectangle_50" data-name="Rectangle 50" width="40" height="4" transform="translate(180 169.869)" fill="#fff" opacity="0.4"/>
  <rect id="Rectangle_51" data-name="Rectangle 51" width="40" height="4" transform="translate(180 177.869)" fill="#fff" opacity="0.4"/>
  <rect id="Rectangle_52" data-name="Rectangle 52" width="39" height="5" transform="translate(77 181.869)" fill="#fff" opacity="0.4"/>
  <rect id="Rectangle_53" data-name="Rectangle 53" width="39" height="5" transform="translate(77 188.869)" fill="#fff" opacity="0.4"/>
  <rect id="Rectangle_54" data-name="Rectangle 54" width="39" height="5" transform="translate(77 195.869)" fill="#fff" opacity="0.4"/>
  <rect id="Rectangle_55" data-name="Rectangle 55" width="11" height="14" transform="translate(131 109.869)" fill="#fff" opacity="0.4"/>
  <rect id="Rectangle_56" data-name="Rectangle 56" width="10" height="14" transform="translate(165 123.869) rotate(180)" fill="#fff" opacity="0.4"/>
  <rect id="Rectangle_57" data-name="Rectangle 57" width="11" height="15" transform="translate(131 131.869)" fill="#fff" opacity="0.4"/>
  <rect id="Rectangle_58" data-name="Rectangle 58" width="10" height="15" transform="translate(165 146.869) rotate(180)" fill="#fff" opacity="0.4"/>
  <rect id="Rectangle_59" data-name="Rectangle 59" width="11" height="14" transform="translate(131 154.869)" fill="#fff" opacity="0.4"/>
  <rect id="Rectangle_60" data-name="Rectangle 60" width="10" height="14" transform="translate(165 168.869) rotate(180)" fill="#fff" opacity="0.4"/>
  <rect id="Rectangle_61" data-name="Rectangle 61" width="11" height="13" transform="translate(131 177.869)" fill="#fff" opacity="0.4"/>
  <rect id="Rectangle_62" data-name="Rectangle 62" width="10" height="13" transform="translate(165 190.869) rotate(180)" fill="#fff" opacity="0.4"/>
  <rect id="Rectangle_63" data-name="Rectangle 63" width="14" height="20" transform="translate(226 32.869)" fill="#fff" opacity="0.4"/>
  <rect id="Rectangle_64" data-name="Rectangle 64" width="14" height="17" transform="translate(226 61.869)" fill="#fff" opacity="0.4"/>
  <rect id="Rectangle_65" data-name="Rectangle 65" width="14" height="19" transform="translate(226 86.869)" fill="#fff" opacity="0.4"/>
  <rect id="Rectangle_66" data-name="Rectangle 66" width="14" height="18" transform="translate(226 113.869)" fill="#fff" opacity="0.4"/>
  <rect id="Rectangle_67" data-name="Rectangle 67" width="14" height="18" transform="translate(226 140.869)" fill="#fff" opacity="0.4"/>
  <rect id="Rectangle_68" data-name="Rectangle 68" width="14" height="19" transform="translate(226 166.869)" fill="#fff" opacity="0.4"/>
  <rect id="Rectangle_69" data-name="Rectangle 69" width="54.038" height="15.727" transform="translate(271.197 71.781)" fill="#fff" opacity="0.4"/>
  <rect id="Rectangle_70" data-name="Rectangle 70" width="53" height="15" transform="translate(272 105.869)" fill="#fff" opacity="0.4"/>
  <rect id="Rectangle_71" data-name="Rectangle 71" width="54.038" height="15.727" transform="translate(271.6 139.53)" fill="#fff" opacity="0.4"/>
  <rect id="Rectangle_72" data-name="Rectangle 72" width="53" height="16" transform="translate(272 172.869)" fill="#fff" opacity="0.4"/>
  <rect id="Rectangle_73" data-name="Rectangle 73" width="7" height="15" transform="translate(11 38.869)" fill="#fff" opacity="0.4"/>
  <rect id="Rectangle_74" data-name="Rectangle 74" width="18" height="23" transform="translate(367 109.869)" fill="#fff" opacity="0.4"/>
  <rect id="Rectangle_75" data-name="Rectangle 75" width="18" height="24" transform="translate(367 142.869)" fill="#fff" opacity="0.4"/>
  <rect id="Rectangle_76" data-name="Rectangle 76" width="18" height="23" transform="translate(367 177.869)" fill="#fff" opacity="0.4"/>
  <path id="Tracé_61" data-name="Tracé 61" d="M159.448,585.263s-31.749,19.155,26.777,48.646c0,0,12.9-23.938-1.363-43.456a19.22,19.22,0,0,0-24.938-5.464Z" transform="translate(-139.418 -391.877)" fill="#516bb2"/>
  <path id="Tracé_62" data-name="Tracé 62" d="M173.08,588.3s27.168,20.788,26.41,49.049" transform="translate(-152.683 -395.317)" fill="none" stroke="#535461" stroke-miterlimit="10" stroke-width="1"/>
  <path id="Tracé_63" data-name="Tracé 63" d="M236.435,553.057s-9.949-33.778,1.867-58.639a53.365,53.365,0,0,0,4.311-33.471,89.491,89.491,0,0,0-4.738-15.727" transform="translate(-188.152 -309.936)" fill="none" stroke="#535461" stroke-miterlimit="10" stroke-width="2"/>
  <path id="Tracé_64" data-name="Tracé 64" d="M241.816,394.959c0,4.138-7.493,16.131-7.493,16.131s-7.5-12.005-7.5-16.131a7.5,7.5,0,1,1,14.989,0Z" transform="translate(-184.754 -275.367)" fill="#6c63ff"/>
  <path id="Tracé_65" data-name="Tracé 65" d="M272.466,446.048c-2.25,3.476-15.066,9.477-15.066,9.477s.23-14.151,2.48-17.623a7.5,7.5,0,1,1,12.586,8.146Z" transform="translate(-202.999 -303.526)" fill="#6c63ff"/>
  <path id="Tracé_66" data-name="Tracé 66" d="M267.088,539.339c-3.694,1.863-17.788.573-17.788.573s7.343-12.1,11.041-13.961a7.5,7.5,0,1,1,6.747,13.389Z" transform="translate(-198.166 -357.631)" fill="#6c63ff"/>
  <path id="Tracé_67" data-name="Tracé 67" d="M250.043,613.618c-3.327,2.46-17.433,3.573-17.433,3.573s5.19-13.167,8.521-15.627a7.5,7.5,0,1,1,8.913,12.055Z" transform="translate(-188.206 -402.355)" fill="#6c63ff"/>
  <path id="Tracé_68" data-name="Tracé 68" d="M215.008,469.615c2.968,2.883,16.8,5.872,16.8,5.872s-3.387-13.739-6.359-16.623a7.495,7.495,0,1,0-10.445,10.751Z" transform="translate(-176.346 -316.814)" fill="#6c63ff"/>
  <path id="Tracé_69" data-name="Tracé 69" d="M192.809,553.632c3.694,1.867,17.788.577,17.788.577s-7.343-12.1-11.037-13.961a7.5,7.5,0,1,0-6.751,13.386Z" transform="translate(-161.995 -366.162)" fill="#6c63ff"/>
  <path id="Tracé_70" data-name="Tracé 70" d="M186.96,640.778c3.327,2.46,17.437,3.573,17.437,3.573s-5.194-13.167-8.525-15.627a7.5,7.5,0,1,0-8.913,12.055Z" transform="translate(-159.151 -418.562)" fill="#6c63ff"/>
  <path id="Tracé_71" data-name="Tracé 71" d="M241.816,394.959c0,4.138-7.493,16.131-7.493,16.131s-7.5-12.005-7.5-16.131a7.5,7.5,0,1,1,14.989,0Z" transform="translate(-184.754 -275.367)" fill="#08ff2e" opacity="0.25"/>
  <path id="Tracé_72" data-name="Tracé 72" d="M272.466,446.048c-2.25,3.476-15.066,9.477-15.066,9.477s.23-14.151,2.48-17.623a7.5,7.5,0,1,1,12.586,8.146Z" transform="translate(-202.999 -303.526)" fill="#08ff2e" opacity="0.25"/>
  <path id="Tracé_73" data-name="Tracé 73" d="M267.088,539.339c-3.694,1.863-17.788.573-17.788.573s7.343-12.1,11.041-13.961a7.5,7.5,0,1,1,6.747,13.389Z" transform="translate(-198.166 -357.631)" fill="#08ff2e" opacity="0.25"/>
  <path id="Tracé_74" data-name="Tracé 74" d="M250.043,613.618c-3.327,2.46-17.433,3.573-17.433,3.573s5.19-13.167,8.521-15.627a7.5,7.5,0,1,1,8.913,12.055Z" transform="translate(-188.206 -402.355)" fill="#08ff2e" opacity="0.25"/>
  <path id="Tracé_75" data-name="Tracé 75" d="M215.008,469.615c2.968,2.883,16.8,5.872,16.8,5.872s-3.387-13.739-6.359-16.623a7.495,7.495,0,1,0-10.445,10.751Z" transform="translate(-176.346 -316.814)" fill="#08ff2e" opacity="0.25"/>
  <path id="Tracé_76" data-name="Tracé 76" d="M192.809,553.632c3.694,1.867,17.788.577,17.788.577s-7.343-12.1-11.037-13.961a7.5,7.5,0,1,0-6.751,13.386Z" transform="translate(-161.995 -366.162)" fill="#08ff2e" opacity="0.25"/>
  <path id="Tracé_77" data-name="Tracé 77" d="M186.96,640.778c3.327,2.46,17.437,3.573,17.437,3.573s-5.194-13.167-8.525-15.627a7.5,7.5,0,1,0-8.913,12.055Z" transform="translate(-159.151 -418.562)" fill="#08ff2e" opacity="0.25"/>
  <path id="Tracé_78" data-name="Tracé 78" d="M1006.485,531.427s-9.948-33.778,1.867-58.639a53.367,53.367,0,0,0,4.315-33.471,90.166,90.166,0,0,0-4.738-15.727" transform="translate(-647.667 -297.029)" fill="none" stroke="#535461" stroke-miterlimit="10" stroke-width="2"/>
  <path id="Tracé_79" data-name="Tracé 79" d="M1011.9,373.587c0,4.138-7.5,16.131-7.5,16.131s-7.5-12.005-7.5-16.131a7.5,7.5,0,1,1,14.993,0Z" transform="translate(-644.29 -262.717)" fill="#4e74de"/>
  <path id="Tracé_80" data-name="Tracé 80" d="M1042.516,424.422c-2.25,3.476-15.066,9.477-15.066,9.477s.234-14.151,2.484-17.623a7.494,7.494,0,1,1,12.582,8.146Z" transform="translate(-662.514 -290.622)" fill="#4e74de"/>
  <path id="Tracé_81" data-name="Tracé 81" d="M1037.142,517.708c-3.7,1.863-17.792.573-17.792.573s7.347-12.1,11.041-13.961a7.5,7.5,0,0,1,6.751,13.388Z" transform="translate(-657.681 -344.723)" fill="#4e74de"/>
  <path id="Tracé_82" data-name="Tracé 82" d="M1020.1,591.988c-3.331,2.46-17.437,3.573-17.437,3.573s5.194-13.167,8.521-15.627a7.5,7.5,0,1,1,8.916,12.054Z" transform="translate(-647.721 -389.448)" fill="#4e74de"/>
  <path id="Tracé_83" data-name="Tracé 83" d="M985.057,447.952c2.972,2.883,16.8,5.872,16.8,5.872s-3.387-13.739-6.355-16.623a7.5,7.5,0,1,0-10.449,10.752Z" transform="translate(-635.861 -303.885)" fill="#4e74de"/>
  <path id="Tracé_84" data-name="Tracé 84" d="M962.9,532c3.7,1.867,17.792.577,17.792.577s-7.344-12.1-11.041-13.961A7.5,7.5,0,1,0,962.9,532Z" transform="translate(-621.534 -353.254)" fill="#4e74de"/>
  <path id="Tracé_85" data-name="Tracé 85" d="M957.013,619.148c3.331,2.46,17.437,3.573,17.437,3.573s-5.194-13.163-8.521-15.627a7.5,7.5,0,1,0-8.916,12.054Z" transform="translate(-618.669 -405.655)" fill="#4e74de"/>
  <path id="Tracé_86" data-name="Tracé 86" d="M897.885,597.111s-5.347-18.147,1-31.511a28.7,28.7,0,0,0,2.319-17.986,48.283,48.283,0,0,0-2.549-8.444" transform="translate(-583.943 -365.999)" fill="none" stroke="#535461" stroke-miterlimit="10" stroke-width="2"/>
  <path id="Tracé_87" data-name="Tracé 87" d="M900.785,512.263c0,2.226-4.033,8.678-4.033,8.678s-4.033-6.452-4.033-8.678a4.033,4.033,0,1,1,8.065,0Z" transform="translate(-582.116 -347.536)" fill="#4e74de"/>
  <path id="Tracé_88" data-name="Tracé 88" d="M917.248,539.81c-1.21,1.867-8.1,5.093-8.1,5.093s.125-7.606,1.335-9.473a4.033,4.033,0,0,1,6.763,4.38Z" transform="translate(-591.921 -362.76)" fill="#4e74de"/>
  <path id="Tracé_89" data-name="Tracé 89" d="M914.361,589.824c-1.988,1-9.561.306-9.561.306s3.948-6.5,5.932-7.5a4.033,4.033,0,0,1,3.629,7.194Z" transform="translate(-589.325 -391.719)" fill="#4e74de"/>
  <path id="Tracé_90" data-name="Tracé 90" d="M905.2,629.438c-1.786,1.323-9.368,1.92-9.368,1.92s2.791-7.073,4.581-8.4a4.033,4.033,0,1,1,4.787,6.476Z" transform="translate(-583.972 -415.449)" fill="#4e74de"/>
  <path id="Tracé_91" data-name="Tracé 91" d="M886.165,552.051c1.613,1.549,9.029,3.154,9.029,3.154s-1.819-7.384-3.416-8.932a4.033,4.033,0,1,0-5.613,5.779Z" transform="translate(-577.392 -369.477)" fill="#4e74de"/>
  <path id="Tracé_92" data-name="Tracé 92" d="M874.659,597.514c1.988,1,9.561.31,9.561.31s-3.948-6.5-5.936-7.5a4.033,4.033,0,0,0-3.629,7.194Z" transform="translate(-570.104 -396.308)" fill="#4e74de"/>
  <path id="Tracé_93" data-name="Tracé 93" d="M871.486,644.377c1.786,1.323,9.368,1.92,9.368,1.92s-2.8-7.077-4.577-8.4a4.033,4.033,0,0,0-4.791,6.481Z" transform="translate(-568.545 -424.496)" fill="#4e74de"/>
  <path id="Tracé_94" data-name="Tracé 94" d="M345.17,151.68H342.4a1.944,1.944,0,1,0,0-3.883H319.922a1.944,1.944,0,1,0,0,3.883H322.7a1.944,1.944,0,1,0,0,3.887h-3.883a1.944,1.944,0,1,0,0,3.883h22.474a1.944,1.944,0,1,0,0-3.883h3.883a1.944,1.944,0,0,0,0-3.887Z" transform="translate(-238.434 -132.453)" fill="#252223" opacity="0.1"/>
  <path id="Tracé_95" data-name="Tracé 95" d="M591.17,272.68H588.4a1.944,1.944,0,1,0,0-3.883H565.922a1.944,1.944,0,1,0,0,3.883H568.7a1.944,1.944,0,1,0,0,3.887h-3.884a1.944,1.944,0,1,0,0,3.883h22.474a1.944,1.944,0,1,0,0-3.883h3.883a1.944,1.944,0,1,0,0-3.887Z" transform="translate(-385.23 -204.658)" fill="#252223" opacity="0.1"/>
  <path id="Tracé_96" data-name="Tracé 96" d="M1010.17,114.68H1007.4a1.944,1.944,0,1,0,0-3.883H984.922a1.944,1.944,0,1,0,0,3.883H987.7a1.944,1.944,0,0,0,0,3.887h-3.883a1.944,1.944,0,1,0,0,3.883h22.474a1.944,1.944,0,1,0,0-3.883h3.883a1.944,1.944,0,0,0,0-3.887Z" transform="translate(-635.262 -110.374)" fill="#252223" opacity="0.1"/>
  <path id="Tracé_97" data-name="Tracé 97" d="M827.1,636.8a.6.6,0,1,0-.6-.6A.6.6,0,0,0,827.1,636.8Z" transform="translate(-542.601 -423.537)" fill="#535461"/>
  <g id="Groupe_13" data-name="Groupe 13" transform="translate(105.694 53.723)" opacity="0.5">
    <path id="Tracé_98" data-name="Tracé 98" d="M489.417,367.9l-5.859-27.583h.6l-.093-.468h.169L481.2,324.925s.153-15.586.891-21.615c.54-4.4,1.4-10.005.77-14.723a4.431,4.431,0,0,0,.238-.4,4.256,4.256,0,0,0,.46-1.613,6.651,6.651,0,0,0-.508-3.892l6.093-3.807c.137,0,.278.028.4.036a1.291,1.291,0,0,0-.1-.262,13.55,13.55,0,0,0,13.413-8.811,8.985,8.985,0,0,0,1.964,2.113c1.641,1.23,4.226,1.5,5.593-.024a4.7,4.7,0,0,0,.98-2.109c.081-.347.137-.7.186-1.053.774-4.121-.923-8.372-3.113-11.985a30.734,30.734,0,0,0-10.989-11.162,19.19,19.19,0,0,0-15.28-1.774c-5,1.71-10.029,6.351-10.485,11.614-.226,2.69.1,3.936-.46,6.577-.278,1.315.323,3.875.315,5.327a6.583,6.583,0,0,0-.1.807,14.063,14.063,0,0,0,1.028,4.686c-6.589.331-23.918,1.665-28.922,6.755-6.226,6.327-21.494,8.59-21.494,8.59l-25.426,5.117-8.872,3.766.1.4-.177.077s.315,1.173.766,2.722a11.522,11.522,0,0,0-3.666,6.856c-.492,2.738-.23,6.263,1.5,10.759,0,0,8.755,16.078,9.36,22.563l11.049,22.055c-.948,1.891-10.416,21.006-12.046,31.7a21.832,21.832,0,0,0-.262,2.327s-.06.565-.21,1.5c-.649,3.964-2.7,13.711-7.715,18.268h0l.065.056h0l-.145.141.113.1c-1.5,2.875.669,6.771.669,6.771l2.472,11.041,2.766.448,2.912-1.186,1.613,3.1s12.562,2.016,16.131,1.9-3.024-6.166-5.335-7.96c-1.282-.992-2.286-5.069-2.924-8.5a5.349,5.349,0,0,0,.9-.932s-1.536-8.065,3.089-19.131c1.972-4.71,4.093-10.126,5.888-14.792.964,6.267,1.976,12.723,2.722,17.131,1.085,6.384.944,10.279.609,12.477a7.413,7.413,0,0,1-.536,2.23.562.562,0,0,1,.04.065,1.148,1.148,0,0,1-.077.165c.024.04.048.077.069.117-2.525,2.887.1,7.6.1,7.6l2.472,11.009,2.766.448,2.912-1.186,1.613,3.1s12.562,2.016,16.131,1.9-3.025-6.166-5.339-7.961c-1.8-1.4-3.053-8.912-3.517-12.134.335-.032.52-.056.52-.056l-.036-.222h.077l-1.581-9.243c-2.7-2.327-2.327-35.383-2.327-35.383a26.053,26.053,0,0,1-1.452,3.178c.137-.557.645-2.129,1.823-5.48a32.979,32.979,0,0,0,1.528-5.92c1.278-7.868-1.1-12.679-1.1-12.679.157-1.581-1.508-7.723-3.476-14.263l6.182-12.05a4.928,4.928,0,0,0,2.694.222l4.682-8.469s9.678-5.767,12.449-5.319c2.577.4,10.65-1.363,13.772-4.726a6.391,6.391,0,0,0,.613-.786c2.512-3.851,1.48,20.107,1.48,20.107l-1.343,8.3-.073.46,4,.081,9.436,32.366s.593,10.977,11.316,13.417S489.417,367.9,489.417,367.9Zm-64.454-37.407c-.581-1.79-1.089-3.335-1.472-4.492l2-1.557s.25.21.673.544Z" transform="translate(-384.594 -242.969)" fill="url(#linear-gradient)"/>
  </g>
  <path id="Tracé_99" data-name="Tracé 99" d="M482.8,674.44s1.367,11.517,3.629,13.267,8.682,7.626,5.2,7.755-15.727-1.847-15.727-1.847l-1.585-3.025-2.823,1.153-2.7-.436-2.42-10.763s-3.4-6.081,1.383-8.537S482.8,674.44,482.8,674.44Z" transform="translate(-327.006 -444.857)" fill="#3a384d"/>
  <path id="Tracé_100" data-name="Tracé 100" d="M450.068,425.349s9.5,28.265,9.138,31.894c0,0,3.48,7.017-.359,17.925s-.4,2.472-.4,2.472-.363,32.217,2.266,34.487l1.54,9.009s-14.808,1.758-17.3-2.795c0,0,1.928-3.375.04-14.518s-5.525-35.693-5.525-35.693l-9.856-56Z" transform="translate(-305.763 -290.19)" opacity="0.1"/>
  <path id="Tracé_101" data-name="Tracé 101" d="M450.158,424.789s9.5,28.281,9.138,31.91c0,0,3.48,7.017-.359,17.925s-.4,2.472-.4,2.472-.363,32.221,2.266,34.487l1.54,9.013s-14.808,1.754-17.3-2.8c0,0,1.928-3.375.04-14.518s-5.529-35.705-5.529-35.705L429.7,411.57Z" transform="translate(-305.817 -289.856)" fill="#bec7de"/>
  <path id="Tracé_102" data-name="Tracé 102" d="M432.478,413.092l9.658,54.9s3.629,24.563,5.529,35.705-.04,14.518-.04,14.518c.726,1.327,2.488,2.113,4.625,2.569-3-.351-5.706-1.169-6.65-2.9,0,0,1.932-3.375.044-14.518s-5.529-35.705-5.529-35.705L430.26,411.66Z" transform="translate(-306.151 -289.91)" opacity="0.1"/>
  <path id="Tracé_103" data-name="Tracé 103" d="M409.359,665.43s1.363,11.517,3.629,13.268,8.682,7.626,5.2,7.755-15.727-1.847-15.727-1.847l-1.585-3.024-2.823,1.157-2.7-.44-2.42-10.763s-3.4-6.081,1.379-8.537S409.359,665.43,409.359,665.43Z" transform="translate(-283.181 -439.48)" fill="#3a384d"/>
  <path id="Tracé_104" data-name="Tracé 104" d="M450.068,425.349s9.5,28.265,9.138,31.894c0,0,3.48,7.017-.359,17.925s-.4,2.472-.4,2.472-.363,32.217,2.266,34.487l1.54,9.009s-14.808,1.758-17.3-2.795c0,0,1.928-3.375.04-14.518s-5.525-35.693-5.525-35.693l-9.856-56Z" transform="translate(-305.763 -290.19)" opacity="0.1"/>
  <path id="Tracé_105" data-name="Tracé 105" d="M396,379.213s-10.57,4.057-4.884,18.808c0,0,8.537,15.671,9.13,21.994l10.808,21.575s-11.525,22.809-12.038,33.1c0,0-1.54,13.816-7.759,19.494,0,0,13.376,11.384,18.357,4.811,0,0-1.5-7.847,3.016-18.647s9.864-25.365,9.864-25.365,12.941-8.747,4.319-26.741l-9.678-40.065-.157-9.017-7.424-2.581Z" transform="translate(-281.788 -268.977)" opacity="0.1"/>
  <path id="Tracé_106" data-name="Tracé 106" d="M394.8,379.565s-10.57,4.057-4.884,18.808c0,0,8.533,15.675,9.126,22l10.807,21.575s-11.525,22.8-12.029,33.1c0,0-1.54,13.812-7.763,19.494,0,0,13.376,11.384,18.361,4.811,0,0-1.5-7.852,3.012-18.647s9.864-25.382,9.864-25.382,12.945-8.747,4.323-26.741l-9.678-40.065-.157-9.017-7.42-2.581Z" transform="translate(-281.072 -269.179)" opacity="0.1"/>
  <path id="Tracé_107" data-name="Tracé 107" d="M394.887,379.027s-10.57,4.061-4.884,18.808c0,0,6.271,11.513,8.432,18.784a56.05,56.05,0,0,0,3.629,9.069l7.872,15.727s-11.525,22.809-12.033,33.1c0,0-1.54,13.816-7.763,19.494,0,0,13.376,11.384,18.361,4.811,0,0-1.5-7.848,3.012-18.647s9.864-25.382,9.864-25.382,12.945-8.747,4.323-26.741l-9.678-40.064-.157-9.017-7.42-2.581Z" transform="translate(-281.126 -268.863)" fill="#bec7de"/>
  <path id="Tracé_108" data-name="Tracé 108" d="M394.887,379.009l13.57-2.649,1.77.617-12.642,2.464s-10.57,4.057-4.884,18.808c0,0,6.267,11.513,8.432,18.784a56.054,56.054,0,0,0,3.629,9.069l7.876,15.727s-11.542,22.8-12.038,33.092c0,0-1.544,13.816-7.763,19.494,0,0,5.763,4.9,11.13,6.416-5.92-.121-13.828-6.855-13.828-6.855,6.222-5.678,7.763-19.494,7.763-19.494.508-10.291,12.033-33.1,12.033-33.1l-7.872-15.727a56.052,56.052,0,0,1-3.629-9.069C396.275,409.327,390,397.8,390,397.8,384.318,383.07,394.887,379.009,394.887,379.009Z" transform="translate(-281.126 -268.845)" opacity="0.1"/>
  <path id="Tracé_109" data-name="Tracé 109" d="M492.081,445.157l-8.416,16.393s2.468,21.841-2.246,22.462-2.823-23.97-2.823-23.97l4.537-20.942Z" transform="translate(-334.771 -306.284)" fill="#be7c5e"/>
  <path id="Tracé_110" data-name="Tracé 110" d="M610.709,477.958l6.017,28.406s14.768,19.909,4.315,17.53S610.012,510.8,610.012,510.8L599.93,476.2Z" transform="translate(-407.399 -328.423)" fill="#be7c5e"/>
  <path id="Tracé_111" data-name="Tracé 111" d="M611.652,321.215l-14.881,9.356L591.46,316.34s12.316.839,13.751-3.771S611.652,321.215,611.652,321.215Z" transform="translate(-402.344 -230.198)" fill="#be7c5e"/>
  <path id="Tracé_112" data-name="Tracé 112" d="M468.226,234.337l-.952-4.077-14.667.859L446.7,254.835l11.005.4,6.162-9.61,3.359-9.372Z" transform="translate(-266.561 -137.404)" fill="#be7c5e"/>
  <path id="Tracé_113" data-name="Tracé 113" d="M482.144,329.4l1.21-6.835s-27.144.339-33.213,6.5-20.95,8.376-20.95,8.376l-24.785,4.984L395.74,346.1s2.444,9.154,3.492,9.787,12.751-9.009,12.751-9.009l4.436,1.178-14.445,15.187,26.66,26.212.492-14.445,3.416-2.67s8.118,6.855,11.739,5.815l4.565-8.255s9.436-5.622,12.134-5.186c2.512.4,10.384-1.327,13.425-4.605a5.762,5.762,0,0,0,.581-.738c2.452-3.754,1.444,19.6,1.444,19.6l-1.379,8.537,14.707.3-2.952-14.542s.149-15.191.867-21.071,2.016-13.965-.617-19.006l-5.178,4.928-9.009,14.461,3.42-12.59Z" transform="translate(-285.552 -236.741)" opacity="0.1"/>
  <path id="Tracé_114" data-name="Tracé 114" d="M482.376,328.013,481.089,321s-24.636.516-30.7,6.682-20.97,8.372-20.97,8.372l-24.785,4.988L396,344.72s2.444,9.154,3.492,9.783,12.755-9,12.755-9l4.436,1.178-14.445,15.187,26.66,26.212.492-14.449,3.428-2.674s8.118,6.856,11.739,5.819l4.565-8.255s9.384-5.622,12.1-5.174c2.512.4,10.384-1.331,13.425-4.609a5.76,5.76,0,0,0,.581-.738c2.452-3.754,1.444,19.6,1.444,19.6l-1.379,8.537,14.707.3L487.045,371.9s.149-15.2.867-21.071,2.016-13.969-.617-19.006l-5.178,4.908L473.1,351.176l3.42-12.59Z" transform="translate(-285.707 -235.81)" fill="#d07575"/>
  <path id="Tracé_115" data-name="Tracé 115" d="M509.139,360.53s-14.683,12.384-16.219,19.054" transform="translate(-343.542 -259.399)" opacity="0.1"/>
  <path id="Tracé_116" data-name="Tracé 116" d="M553.2,387s-11.291,8.549-13.308,13.985" transform="translate(-371.571 -275.194)" opacity="0.1"/>
  <path id="Tracé_117" data-name="Tracé 117" d="M489.24,418.92s-1.061,5.13-1.27,7.864" transform="translate(-340.588 -294.242)" opacity="0.1"/>
  <path id="Tracé_118" data-name="Tracé 118" d="M449.28,426.2S432.367,411.013,430,411.323" transform="translate(-305.996 -289.706)" opacity="0.1"/>
  <path id="Tracé_119" data-name="Tracé 119" d="M620.552,313.21c1.375-4.412,6.021,7.549,6.412,8.577a12.443,12.443,0,0,1-1.319-.145,13.147,13.147,0,0,1-8.775-5.561C618.681,315.513,620.124,314.613,620.552,313.21Z" transform="translate(-417.507 -230.581)" opacity="0.1"/>
  <circle id="Ellipse_13" data-name="Ellipse 13" cx="13.203" cy="13.203" r="13.203" transform="translate(196.862 64.567)" fill="#be7c5e"/>
  <path id="Tracé_120" data-name="Tracé 120" d="M617.935,273.381c1.036,1.706,1.98,3.557,3.581,4.751s4.121,1.464,5.452-.024a4.6,4.6,0,0,0,.952-2.057c.976-4.158-.73-8.469-2.944-12.134a30.072,30.072,0,0,0-10.711-10.888,18.664,18.664,0,0,0-14.9-1.73c-4.871,1.67-8.872,6.13-9.275,11.259-.222,2.621.44,5.295-.1,7.872a26.264,26.264,0,0,0-.96,3.992c-.129,2.545,1.613,4.912,1.456,7.456-.1,1.569-.9,2.992-1.391,4.488-1.21,3.605-.556,7.529-.806,11.32s-1.907,8.041-5.537,9.162a8.44,8.44,0,0,0,11.179-4.291,19.5,19.5,0,0,1,1.432-3.843c1.274-1.936,3.924-2.7,4.992-4.759s.141-4.561-1.028-6.557-2.629-4-2.654-6.315a5.557,5.557,0,0,1,3.629-5.17,15.669,15.669,0,0,1,3.448-.532,18.256,18.256,0,0,0,8-3.053C614.85,270.3,615.681,269.671,617.935,273.381Z" transform="translate(-397.147 -193.708)" opacity="0.1"/>
  <path id="Tracé_121" data-name="Tracé 121" d="M618.133,271.96c1.036,1.71,1.98,3.557,3.581,4.755s4.121,1.464,5.452-.024a4.617,4.617,0,0,0,.952-2.057c.976-4.158-.73-8.469-2.944-12.134a30.041,30.041,0,0,0-10.711-10.888,18.68,18.68,0,0,0-14.9-1.73c-4.871,1.665-9.775,6.194-10.207,11.324-.222,2.621.1,3.835-.448,6.408-.282,1.343.375,4.033.307,5.4-.129,2.545,1.613,4.912,1.456,7.456-.1,1.569-.9,2.992-1.391,4.484-1.21,3.609-.557,7.533-.807,11.324s-1.907,8.037-5.537,9.158a8.44,8.44,0,0,0,11.179-4.291,19.556,19.556,0,0,1,1.432-3.839c1.274-1.936,3.924-2.7,4.992-4.759s.141-4.565-1.024-6.561-2.633-4-2.658-6.315a5.557,5.557,0,0,1,3.629-5.166,15.668,15.668,0,0,1,3.448-.532,18.3,18.3,0,0,0,8-3.053C615.056,268.879,615.887,268.254,618.133,271.96Z" transform="translate(-397.26 -192.864)" fill="#723647"/>
  <rect id="Rectangle_77" data-name="Rectangle 77" width="7.271" height="1.593" rx="0.796" transform="translate(199.864 87.772) rotate(-170.82)" fill="#252a62"/>
  <path id="Tracé_122" data-name="Tracé 122" d="M573.638,576.016a11.634,11.634,0,0,0,11.735,11.291h.879a2.976,2.976,0,0,1,2.081.839,2.88,2.88,0,0,1,.843,1.476,2.7,2.7,0,0,1,.089.7v11.15a11.167,11.167,0,0,0,1.766,6.049,15.957,15.957,0,0,1,2.629,8.606h0a5.38,5.38,0,0,0,5.476,5.38,5.489,5.489,0,0,0,5.267-5.549v-2.787l1.468.169v2.795a5.375,5.375,0,0,0,5.472,5.372,5.489,5.489,0,0,0,5.271-5.549v-1.411c1.464.613,9.767.613,12.07,0l.625-.048v1.613a5.379,5.379,0,0,0,5.476,5.4,5.489,5.489,0,0,0,5.267-5.549V613.64l.488-.044v2.541a5.38,5.38,0,0,0,5.476,5.367,5.468,5.468,0,0,0,5.242-4.795,6.654,6.654,0,0,0,.048-.754V604.293a17.869,17.869,0,0,0-3.811-11.049,3.315,3.315,0,0,1-.093-3.912c2.734-4,6.779-10.763,6.646-15.554a5.243,5.243,0,0,0-1.278-3.545c-.052-.061-.109-.117-.161-.173a5.985,5.985,0,0,0-10.263,4.787,16.014,16.014,0,0,1-.4,5.666,17.55,17.55,0,0,1-1.1,3.036,5.162,5.162,0,0,1-5.271,2.932,17.951,17.951,0,0,0-2.2-.133H610.787a6.344,6.344,0,0,1-6.009-4.3,6.127,6.127,0,0,1-.343-2.045V562.417a3.42,3.42,0,0,0-3.525-3.42,3.339,3.339,0,0,0-2.359,1.1,3.665,3.665,0,0,0-.952,2.46,1.807,1.807,0,0,1-1.811,1.811H585.115a11.477,11.477,0,0,0-11.477,11.646Z" transform="translate(-391.709 -377.83)" fill="#f3ad55"/>
  <path id="Tracé_123" data-name="Tracé 123" d="M740,701.705a5.379,5.379,0,0,0,5.307,4.033,5.468,5.468,0,0,0,5.242-4.795C747.259,700.068,742.75,699.463,740,701.705Z" transform="translate(-490.983 -462.064)" fill="#fbdca3"/>
  <path id="Tracé_124" data-name="Tracé 124" d="M712.1,701.705a5.384,5.384,0,0,0,5.311,4.033,5.464,5.464,0,0,0,5.218-4.795C719.379,700.068,714.883,699.463,712.1,701.705Z" transform="translate(-474.334 -462.064)" fill="#fbdca3"/>
  <path id="Tracé_125" data-name="Tracé 125" d="M654,701.705a5.38,5.38,0,0,0,5.307,4.033,5.468,5.468,0,0,0,5.243-4.795C661.259,700.068,656.758,699.463,654,701.705Z" transform="translate(-439.664 -462.064)" fill="#fbdca3"/>
  <path id="Tracé_126" data-name="Tracé 126" d="M623.7,701.705a5.38,5.38,0,0,0,5.311,4.033,5.464,5.464,0,0,0,5.218-4.795C630.979,700.068,626.47,699.463,623.7,701.705Z" transform="translate(-421.583 -462.064)" fill="#fbdca3"/>
  <path id="Tracé_127" data-name="Tracé 127" d="M742.94,594.134a76.125,76.125,0,0,0,12.1-6.735,5.243,5.243,0,0,0-1.278-3.545c-.052-.06-.109-.117-.161-.174a5.985,5.985,0,0,0-10.263,4.787A16.017,16.017,0,0,1,742.94,594.134Z" transform="translate(-492.738 -391.453)" fill="#fbdca3"/>
  <path id="Tracé_128" data-name="Tracé 128" d="M690.793,626.852s-10.449,13.155-27.543-.032" transform="translate(-445.184 -418.303)" fill="#fbdca3"/>
  <path id="Tracé_129" data-name="Tracé 129" d="M645.755,566.27s-6.347,8.3,0,18.55" transform="translate(-433.061 -382.171)" fill="#fbdca3"/>
  <path id="Tracé_130" data-name="Tracé 130" d="M612.39,636.51s5.593,6.944.073,12.469" transform="translate(-414.834 -424.085)" fill="#fbdca3"/>
  <path id="Tracé_131" data-name="Tracé 131" d="M611.18,623.639c.4.4.274.766.4,1.339l18.147-4.755a7.009,7.009,0,0,1-2.589-2.823C624.972,619.074,620.669,621.9,611.18,623.639Z" transform="translate(-414.112 -412.682)" opacity="0.1"/>
  <path id="Tracé_132" data-name="Tracé 132" d="M610.08,622.268a2.879,2.879,0,0,1,.843,1.476l17.7-4.613a6.327,6.327,0,0,1-2.129-2.98C624.315,617.84,619.569,620.525,610.08,622.268Z" transform="translate(-413.456 -411.936)" fill="#383f4d"/>
  <path id="Tracé_133" data-name="Tracé 133" d="M627.206,618.57a34.311,34.311,0,0,1-14.816,5.456" transform="translate(-414.834 -413.38)" opacity="0.1"/>
  <path id="Tracé_134" data-name="Tracé 134" d="M627.206,617.36a34.312,34.312,0,0,1-14.816,5.456" transform="translate(-414.834 -412.658)" fill="#f3ad55"/>
  <path id="Tracé_135" data-name="Tracé 135" d="M597.469,608.947s-9.275,2.932-11.719-6.347Z" transform="translate(-398.937 -403.85)" opacity="0.1"/>
  <path id="Tracé_136" data-name="Tracé 136" d="M597.469,607.737s-9.275,2.932-11.719-6.347Z" transform="translate(-398.937 -403.128)" fill="#fbdca3"/>
  <ellipse id="Ellipse_14" data-name="Ellipse 14" cx="0.976" cy="1.71" rx="0.976" ry="1.71" transform="translate(180.954 195.33)" fill="#383f4d"/>
  <path id="Tracé_137" data-name="Tracé 137" d="M754.212,662.427,752.26,646.8s5.859,9.275,1.952,15.627" transform="translate(-498.299 -430.226)" opacity="0.1"/>
  <path id="Tracé_138" data-name="Tracé 138" d="M751.05,646.8s5.859,9.275,1.952,15.627Z" transform="translate(-497.577 -430.226)" fill="#fbdca3"/>
</svg>
